<?xml version="1.0" encoding="UTF-8"?>
<!DOCTYPE svg PUBLIC "-//W3C//DTD SVG 1.1//EN" "http://www.w3.org/Graphics/SVG/1.1/DTD/svg11.dtd">
<svg xmlns="http://www.w3.org/2000/svg" version="1.1" width="500px" height="500px" style="shape-rendering:geometricPrecision; text-rendering:geometricPrecision; image-rendering:optimizeQuality; fill-rule:evenodd; clip-rule:evenodd" xmlns:xlink="http://www.w3.org/1999/xlink">
<g><path style="opacity:0.851" fill="#d36b6c" d="M 265.5,15.5 C 274.331,13.4898 282.664,14.8231 290.5,19.5C 282.331,17.2375 273.997,15.9041 265.5,15.5 Z"/></g>
<g><path style="opacity:0.878" fill="#d56466" d="M 264.5,15.5 C 260.648,16.8472 256.981,18.6805 253.5,21C 252.207,21.49 250.873,21.6567 249.5,21.5C 253.746,17.9657 258.746,15.9657 264.5,15.5 Z"/></g>
<g><path style="opacity:0.957" fill="#d87070" d="M 290.5,19.5 C 292.674,19.7497 294.341,20.7497 295.5,22.5C 293.011,22.7593 291.344,21.7593 290.5,19.5 Z"/></g>
<g><path style="opacity:0.471" fill="#de7775" d="M 249.5,21.5 C 247.1,24.9031 244.1,27.5698 240.5,29.5C 242.9,26.0969 245.9,23.4302 249.5,21.5 Z"/></g>
<g><path style="opacity:1" fill="#e92129" d="M 264.5,15.5 C 264.833,15.5 265.167,15.5 265.5,15.5C 273.997,15.9041 282.331,17.2375 290.5,19.5C 291.344,21.7593 293.011,22.7593 295.5,22.5C 295.675,24.8444 296.842,26.511 299,27.5C 299.49,28.7932 299.657,30.1266 299.5,31.5C 300.5,31.5 301.5,31.5 302.5,31.5C 302.343,32.8734 302.51,34.2068 303,35.5C 305.569,38.635 308.069,41.635 310.5,44.5C 311.234,45.7079 311.567,47.0413 311.5,48.5C 311.5,55.8333 311.5,63.1667 311.5,70.5C 311.683,77.4589 309.183,83.1256 304,87.5C 303.51,88.7932 303.343,90.1266 303.5,91.5C 302.833,94.1667 301.167,95.8333 298.5,96.5C 296.42,97.0444 294.42,97.8777 292.5,99C 291.177,99.8159 290.511,100.983 290.5,102.5C 286.208,102.035 282.208,102.868 278.5,105C 273.511,105.499 268.511,105.666 263.5,105.5C 261.565,104.85 259.565,104.517 257.5,104.5C 254.012,100.583 249.679,97.9166 244.5,96.5C 243.738,94.7376 242.404,93.7376 240.5,93.5C 240.167,92.8333 239.833,92.1667 239.5,91.5C 239.657,90.1266 239.49,88.7932 239,87.5C 236.938,85.6397 235.605,83.3064 235,80.5C 234.329,79.7476 233.496,79.4142 232.5,79.5C 232.946,76.9899 232.28,74.9899 230.5,73.5C 230.434,64.1483 230.768,54.815 231.5,45.5C 232.458,45.0472 233.292,44.3805 234,43.5C 235.591,41.0734 236.425,38.4067 236.5,35.5C 236.845,32.8021 238.178,30.8021 240.5,29.5C 244.1,27.5698 247.1,24.9031 249.5,21.5C 250.873,21.6567 252.207,21.49 253.5,21C 256.981,18.6805 260.648,16.8472 264.5,15.5 Z"/></g>
<g><path style="opacity:1" fill="#d54a4b" d="M 295.5,22.5 C 302.341,27.3449 307.341,33.6783 310.5,41.5C 310.5,42.5 310.5,43.5 310.5,44.5C 308.069,41.635 305.569,38.635 303,35.5C 302.51,34.2068 302.343,32.8734 302.5,31.5C 301.5,31.5 300.5,31.5 299.5,31.5C 299.657,30.1266 299.49,28.7932 299,27.5C 296.842,26.511 295.675,24.8444 295.5,22.5 Z"/></g>
<g><path style="opacity:1" fill="#fdb72e" d="M 207.5,44.5 C 210.496,47.4974 212.163,51.164 212.5,55.5C 212.886,63.6194 212.219,71.6194 210.5,79.5C 210.672,80.4916 210.338,81.1583 209.5,81.5C 209.44,80.9569 209.107,80.6236 208.5,80.5C 207.614,81.325 207.281,82.325 207.5,83.5C 205.042,83.2275 203.375,84.2275 202.5,86.5C 193.638,92.3199 183.971,93.9866 173.5,91.5C 170.871,87.2034 167.537,83.5367 163.5,80.5C 162.58,76.9849 160.913,73.9849 158.5,71.5C 158.375,65.7969 158.708,60.1302 159.5,54.5C 161.216,50.7399 163.216,47.0732 165.5,43.5C 165.5,43.1667 165.5,42.8333 165.5,42.5C 168.455,42.0193 170.789,40.5193 172.5,38C 181.584,34.5545 190.584,34.7212 199.5,38.5C 201.921,40.9337 204.588,42.9337 207.5,44.5 Z"/></g>
<g><path style="opacity:0.38" fill="#efc87b" d="M 207.5,44.5 C 204.588,42.9337 201.921,40.9337 199.5,38.5C 190.584,34.7212 181.584,34.5545 172.5,38C 170.789,40.5193 168.455,42.0193 165.5,42.5C 175.735,32.739 187.402,30.9057 200.5,37C 203.039,39.3697 205.372,41.8697 207.5,44.5 Z"/></g>
<g><path style="opacity:0.773" fill="#cf5555" d="M 236.5,35.5 C 236.425,38.4067 235.591,41.0734 234,43.5C 233.292,44.3805 232.458,45.0472 231.5,45.5C 232.367,41.6705 234.033,38.3372 236.5,35.5 Z"/></g>
<g><path style="opacity:0.424" fill="#e48c8b" d="M 310.5,41.5 C 311.924,43.5145 312.59,45.8478 312.5,48.5C 312.167,48.5 311.833,48.5 311.5,48.5C 311.567,47.0413 311.234,45.7079 310.5,44.5C 310.5,43.5 310.5,42.5 310.5,41.5 Z"/></g>
<g><path style="opacity:0.286" fill="#f1d291" d="M 165.5,43.5 C 163.216,47.0732 161.216,50.7399 159.5,54.5C 159.715,49.7285 161.715,46.0618 165.5,43.5 Z"/></g>
<g><path style="opacity:0.043" fill="#f8db9c" d="M 159.5,54.5 C 158.708,60.1302 158.375,65.7969 158.5,71.5C 157.837,69.3587 157.503,67.0254 157.5,64.5C 157.315,60.8589 157.981,57.5256 159.5,54.5 Z"/></g>
<g><path style="opacity:1" fill="#d64e50" d="M 311.5,48.5 C 311.833,48.5 312.167,48.5 312.5,48.5C 314.521,54.7677 314.854,61.1011 313.5,67.5C 312.833,68.5 312.167,69.5 311.5,70.5C 311.5,63.1667 311.5,55.8333 311.5,48.5 Z"/></g>
<g><path style="opacity:0.841" fill="#cf5e5a" d="M 231.5,45.5 C 230.768,54.815 230.434,64.1483 230.5,73.5C 228.945,69.7968 228.278,65.7968 228.5,61.5C 228.098,55.773 229.098,50.4397 231.5,45.5 Z"/></g>
<g><path style="opacity:0.686" fill="#5baa84" d="M 150.5,111.5 C 152.429,106.2 153.429,100.7 153.5,95C 153.333,92.5 153.167,90 153,87.5C 151.019,85.6409 150.019,83.3076 150,80.5C 146.85,77.0206 143.35,73.854 139.5,71C 133.157,69.6914 126.824,69.5248 120.5,70.5C 136.414,64.3664 147.581,69.3664 154,85.5C 154.667,91.8333 154.667,98.1667 154,104.5C 153.102,107.069 151.935,109.402 150.5,111.5 Z"/></g>
<g><path style="opacity:0.102" fill="#edca7e" d="M 212.5,55.5 C 215.408,63.7561 214.742,71.7561 210.5,79.5C 212.219,71.6194 212.886,63.6194 212.5,55.5 Z"/></g>
<g><path style="opacity:0.553" fill="#de8582" d="M 230.5,73.5 C 232.28,74.9899 232.946,76.9899 232.5,79.5C 230.926,77.8984 230.259,75.8984 230.5,73.5 Z"/></g>
<g><path style="opacity:1" fill="#29b26c" d="M 150.5,111.5 C 148.5,114.167 146.167,116.5 143.5,118.5C 137.595,120.124 131.595,120.624 125.5,120C 121.825,119.133 118.492,117.633 115.5,115.5C 114.477,110.453 112.143,106.12 108.5,102.5C 108.334,98.1539 108.501,93.8206 109,89.5C 110.75,86.7536 111.75,83.7536 112,80.5C 115.371,77.6282 118.205,74.2949 120.5,70.5C 126.824,69.5248 133.157,69.6914 139.5,71C 143.35,73.854 146.85,77.0206 150,80.5C 150.019,83.3076 151.019,85.6409 153,87.5C 153.167,90 153.333,92.5 153.5,95C 153.429,100.7 152.429,106.2 150.5,111.5 Z"/></g>
<g><path style="opacity:0.855" fill="#6cb690" d="M 120.5,70.5 C 118.205,74.2949 115.371,77.6282 112,80.5C 111.75,83.7536 110.75,86.7536 109,89.5C 108.501,93.8206 108.334,98.1539 108.5,102.5C 106.404,93.7776 107.571,85.4443 112,77.5C 114.436,74.5532 117.269,72.2199 120.5,70.5 Z"/></g>
<g><path style="opacity:0.655" fill="#edc775" d="M 158.5,71.5 C 160.913,73.9849 162.58,76.9849 163.5,80.5C 167.537,83.5367 170.871,87.2034 173.5,91.5C 165.129,87.4509 160.129,80.7842 158.5,71.5 Z"/></g>
<g><path style="opacity:0.788" fill="#d86a68" d="M 232.5,79.5 C 233.496,79.4142 234.329,79.7476 235,80.5C 235.605,83.3064 236.938,85.6397 239,87.5C 239.49,88.7932 239.657,90.1266 239.5,91.5C 236.161,88.1651 233.828,84.1651 232.5,79.5 Z"/></g>
<g><path style="opacity:0.949" fill="#d16668" d="M 313.5,67.5 C 313.433,76.9547 310.1,84.9547 303.5,91.5C 303.343,90.1266 303.51,88.7932 304,87.5C 309.183,83.1256 311.683,77.4589 311.5,70.5C 312.167,69.5 312.833,68.5 313.5,67.5 Z"/></g>
<g><path style="opacity:0.996" fill="#edc05c" d="M 209.5,81.5 C 202.665,91.9155 192.999,96.4155 180.5,95C 177.826,94.3299 175.493,93.1632 173.5,91.5C 183.971,93.9866 193.638,92.3199 202.5,86.5C 203.375,84.2275 205.042,83.2275 207.5,83.5C 207.281,82.325 207.614,81.325 208.5,80.5C 209.107,80.6236 209.44,80.9569 209.5,81.5 Z"/></g>
<g><path style="opacity:0.255" fill="#eba2a2" d="M 240.5,93.5 C 242.404,93.7376 243.738,94.7376 244.5,96.5C 242.596,96.2624 241.262,95.2624 240.5,93.5 Z"/></g>
<g><path style="opacity:0.89" fill="#d56c6c" d="M 298.5,96.5 C 296.687,99.6472 294.02,101.647 290.5,102.5C 290.511,100.983 291.177,99.8159 292.5,99C 294.42,97.8777 296.42,97.0444 298.5,96.5 Z"/></g>
<g><path style="opacity:0.996" fill="#d95c5b" d="M 244.5,96.5 C 249.679,97.9166 254.012,100.583 257.5,104.5C 252.163,103.502 247.83,100.836 244.5,96.5 Z"/></g>
<g><path style="opacity:0.969" fill="#da5f62" d="M 290.5,102.5 C 282.139,107.273 273.139,108.606 263.5,106.5C 263.5,106.167 263.5,105.833 263.5,105.5C 268.511,105.666 273.511,105.499 278.5,105C 282.208,102.868 286.208,102.035 290.5,102.5 Z"/></g>
<g><path style="opacity:0.224" fill="#dc8e8c" d="M 257.5,104.5 C 259.565,104.517 261.565,104.85 263.5,105.5C 263.5,105.833 263.5,106.167 263.5,106.5C 261.102,106.741 259.102,106.074 257.5,104.5 Z"/></g>
<g><path style="opacity:0.996" fill="#5fb185" d="M 108.5,102.5 C 112.143,106.12 114.477,110.453 115.5,115.5C 111.357,112.218 109.023,107.884 108.5,102.5 Z"/></g>
<g><path style="opacity:0.992" fill="#d75397" d="M 96.5,115.5 C 92.6778,114.058 88.6778,113.058 84.5,112.5C 82.5,112.667 80.5,112.833 78.5,113C 75.5823,115.741 72.249,117.907 68.5,119.5C 69.5914,116.572 71.5914,114.406 74.5,113C 80.2163,110.933 85.883,110.6 91.5,112C 93.5844,112.697 95.2511,113.864 96.5,115.5 Z"/></g>
<g><path style="opacity:1" fill="#ea0289" d="M 108.5,148.5 C 105.953,152.776 102.62,156.443 98.5,159.5C 91.1934,161.198 84.1934,160.531 77.5,157.5C 77.0472,156.542 76.3805,155.708 75.5,155C 76.4506,154.282 76.6172,153.449 76,152.5C 74.4905,151.91 72.9905,151.244 71.5,150.5C 71.3223,147.196 69.6557,145.529 66.5,145.5C 66.5,144.833 66.5,144.167 66.5,143.5C 65.7926,136.801 66.7926,130.468 69.5,124.5C 70.6888,123.571 72.0222,123.238 73.5,123.5C 73.8997,119.653 75.8997,117.32 79.5,116.5C 79.5,115.5 79.5,114.5 79.5,113.5C 82.1873,113.336 84.854,113.503 87.5,114C 90.4872,116.082 93.8206,117.249 97.5,117.5C 98.8975,121.02 100.731,124.353 103,127.5C 104.803,128.313 106.303,129.48 107.5,131C 107.943,136.878 108.277,142.712 108.5,148.5 Z"/></g>
<g><path style="opacity:1" fill="#db2886" d="M 96.5,115.5 C 109.704,123.771 114.038,135.438 109.5,150.5C 108.662,150.158 108.328,149.492 108.5,148.5C 108.277,142.712 107.943,136.878 107.5,131C 106.303,129.48 104.803,128.313 103,127.5C 100.731,124.353 98.8975,121.02 97.5,117.5C 93.8206,117.249 90.4872,116.082 87.5,114C 84.854,113.503 82.1873,113.336 79.5,113.5C 79.5,114.5 79.5,115.5 79.5,116.5C 75.8997,117.32 73.8997,119.653 73.5,123.5C 72.0222,123.238 70.6888,123.571 69.5,124.5C 66.7926,130.468 65.7926,136.801 66.5,143.5C 65.7321,142.737 65.2321,141.737 65,140.5C 64.3333,135.167 64.3333,129.833 65,124.5C 65.6972,122.416 66.8639,120.749 68.5,119.5C 72.249,117.907 75.5823,115.741 78.5,113C 80.5,112.833 82.5,112.667 84.5,112.5C 88.6778,113.058 92.6778,114.058 96.5,115.5 Z"/></g>
<g><path style="opacity:0.616" fill="#6eb690" d="M 115.5,115.5 C 118.492,117.633 121.825,119.133 125.5,120C 131.595,120.624 137.595,120.124 143.5,118.5C 136.702,122.773 129.368,123.606 121.5,121C 119.004,119.669 117.004,117.836 115.5,115.5 Z"/></g>
<g><path style="opacity:0.176" fill="#e6ca77" d="M 255.5,127.5 C 239.167,126.167 222.833,126.167 206.5,127.5C 215.102,125.819 223.935,124.819 233,124.5C 240.752,124.767 248.252,125.767 255.5,127.5 Z"/></g>
<g><path style="opacity:0.949" fill="#e4ba52" d="M 255.5,127.5 C 264.466,129.98 271.133,135.314 275.5,143.5C 268.953,138.445 262.286,133.612 255.5,129C 242.198,127.528 228.864,127.195 215.5,128C 205.151,129.956 194.817,131.789 184.5,133.5C 191.381,130.277 198.714,128.277 206.5,127.5C 222.833,126.167 239.167,126.167 255.5,127.5 Z"/></g>
<g><path style="opacity:0.957" fill="#e5bd64" d="M 183.5,133.5 C 183.586,134.496 183.252,135.329 182.5,136C 177.199,137.125 172.032,138.625 167,140.5C 166.833,140.833 166.667,141.167 166.5,141.5C 169.428,142.484 172.428,142.817 175.5,142.5C 170.562,144.947 165.228,145.947 159.5,145.5C 159.297,143.61 159.963,142.11 161.5,141C 168.625,137.792 175.958,135.292 183.5,133.5 Z"/></g>
<g><path style="opacity:0.984" fill="#e4c46a" d="M 241.5,138.5 C 244.85,138.335 248.183,138.502 251.5,139C 254.863,142.022 258.53,144.688 262.5,147C 263.582,148.33 264.249,149.83 264.5,151.5C 260.675,148.523 256.675,145.689 252.5,143C 248.947,140.879 245.28,139.379 241.5,138.5 Z"/></g>
<g><path style="opacity:1" fill="#d95196" d="M 66.5,145.5 C 69.6557,145.529 71.3223,147.196 71.5,150.5C 72.9905,151.244 74.4905,151.91 76,152.5C 76.6172,153.449 76.4506,154.282 75.5,155C 76.3805,155.708 77.0472,156.542 77.5,157.5C 72.4666,154.798 68.8,150.798 66.5,145.5 Z"/></g>
<g><path style="opacity:0.984" fill="#d25593" d="M 108.5,148.5 C 108.328,149.492 108.662,150.158 109.5,150.5C 104.322,160.751 95.9883,164.585 84.5,162C 81.7613,160.974 79.428,159.474 77.5,157.5C 84.1934,160.531 91.1934,161.198 98.5,159.5C 102.62,156.443 105.953,152.776 108.5,148.5 Z"/></g>
<g><path style="opacity:1" fill="#eeb62f" d="M 275.5,143.5 C 276.502,147.84 278.335,151.84 281,155.5C 284.574,166.234 285.408,177.234 283.5,188.5C 282.914,188.291 282.414,187.957 282,187.5C 281.192,178.789 279.192,170.455 276,162.5C 275.329,161.748 274.496,161.414 273.5,161.5C 270.51,158.208 267.51,154.874 264.5,151.5C 264.249,149.83 263.582,148.33 262.5,147C 258.53,144.688 254.863,142.022 251.5,139C 248.183,138.502 244.85,138.335 241.5,138.5C 226.848,137.697 212.181,137.363 197.5,137.5C 192.434,137.34 187.434,137.84 182.5,139C 179.555,139.139 177.221,140.306 175.5,142.5C 172.428,142.817 169.428,142.484 166.5,141.5C 166.667,141.167 166.833,140.833 167,140.5C 172.032,138.625 177.199,137.125 182.5,136C 183.252,135.329 183.586,134.496 183.5,133.5C 183.833,133.5 184.167,133.5 184.5,133.5C 194.817,131.789 205.151,129.956 215.5,128C 228.864,127.195 242.198,127.528 255.5,129C 262.286,133.612 268.953,138.445 275.5,143.5 Z"/></g>
<g><path style="opacity:0.396" fill="#e1c36d" d="M 197.5,137.5 C 190.167,138.728 182.834,140.395 175.5,142.5C 177.221,140.306 179.555,139.139 182.5,139C 187.434,137.84 192.434,137.34 197.5,137.5 Z"/></g>
<g><path style="opacity:0.38" fill="#e3c571" d="M 275.5,143.5 C 282.672,153.132 286.339,164.132 286.5,176.5C 285.835,181.481 285.335,186.481 285,191.5C 283.535,192.369 282.369,191.869 281.5,190C 280.081,182.49 278.581,174.99 277,167.5C 275.923,165.422 274.757,163.422 273.5,161.5C 274.496,161.414 275.329,161.748 276,162.5C 279.192,170.455 281.192,178.789 282,187.5C 282.414,187.957 282.914,188.291 283.5,188.5C 285.408,177.234 284.574,166.234 281,155.5C 278.335,151.84 276.502,147.84 275.5,143.5 Z"/></g>
<g><path style="opacity:1" fill="#50a6da" d="M 111.5,184.5 C 112.546,178.741 115.379,174.075 120,170.5C 120.483,169.552 120.649,168.552 120.5,167.5C 116.729,168.138 113.729,169.972 111.5,173C 107.391,175.039 103.725,177.539 100.5,180.5C 109.424,169.907 120.09,161.573 132.5,155.5C 132.657,156.873 132.49,158.207 132,159.5C 124.667,167.546 117.834,175.88 111.5,184.5 Z"/></g>
<g><path style="opacity:0.6" fill="#9391b7" d="M 70.5,170.5 C 66.9082,170.286 63.4082,169.619 60,168.5C 57.5161,168.497 55.3495,169.163 53.5,170.5C 51.5648,171.15 49.5648,171.483 47.5,171.5C 55.0089,166.663 62.6756,166.33 70.5,170.5 Z"/></g>
<g><path style="opacity:1" fill="#5351a2" d="M 70.5,170.5 C 72.0618,170.733 73.3951,171.4 74.5,172.5C 75.2186,174.764 75.552,177.097 75.5,179.5C 76.5,179.5 77.5,179.5 78.5,179.5C 78.4643,183.453 79.131,187.286 80.5,191C 79.744,194.125 79.4107,197.291 79.5,200.5C 79.5,200.833 79.5,201.167 79.5,201.5C 77.7085,201.366 76.0418,201.699 74.5,202.5C 72.139,202.326 69.8056,201.993 67.5,201.5C 66.0589,206.791 64.2255,206.791 62,201.5C 61.6258,202.416 61.1258,203.25 60.5,204C 58.1902,204.497 55.8568,204.663 53.5,204.5C 53.7135,202.856 53.3802,201.356 52.5,200C 49.4691,199.556 46.8024,198.389 44.5,196.5C 44.4142,195.504 44.7476,194.671 45.5,194C 44.7482,190.893 43.7482,187.893 42.5,185C 44.8742,181.083 46.8742,176.916 48.5,172.5C 50.698,172.88 52.3646,172.213 53.5,170.5C 55.3495,169.163 57.5161,168.497 60,168.5C 63.4082,169.619 66.9082,170.286 70.5,170.5 Z"/></g>
<g><path style="opacity:0.996" fill="#65609c" d="M 53.5,170.5 C 52.3646,172.213 50.698,172.88 48.5,172.5C 46.8742,176.916 44.8742,181.083 42.5,185C 43.7482,187.893 44.7482,190.893 45.5,194C 44.7476,194.671 44.4142,195.504 44.5,196.5C 43.0337,195.653 42.2004,194.32 42,192.5C 41.3333,188.167 41.3333,183.833 42,179.5C 43.116,176.244 44.9493,173.578 47.5,171.5C 49.5648,171.483 51.5648,171.15 53.5,170.5 Z"/></g>
<g><path style="opacity:0.267" fill="#b4b4ca" d="M 209.5,184.5 C 209.5,184.833 209.5,185.167 209.5,185.5C 203.409,185.211 197.409,185.545 191.5,186.5C 197.074,184.547 203.074,183.88 209.5,184.5 Z"/></g>
<g><path style="opacity:0.263" fill="#bfbdd2" d="M 227.5,185.5 C 233.645,184.51 239.978,184.177 246.5,184.5C 246.806,187.385 246.473,190.052 245.5,192.5C 245.5,190.167 245.5,187.833 245.5,185.5C 239.5,185.5 233.5,185.5 227.5,185.5 Z"/></g>
<g><path style="opacity:1" fill="#747293" d="M 227.5,185.5 C 233.5,185.5 239.5,185.5 245.5,185.5C 245.5,187.833 245.5,190.167 245.5,192.5C 245.784,194.415 245.451,196.081 244.5,197.5C 244.5,193.833 244.5,190.167 244.5,186.5C 239.273,186.822 233.939,186.822 228.5,186.5C 227.669,193.817 227.002,201.151 226.5,208.5C 225.5,208.5 224.5,208.5 223.5,208.5C 224.395,200.624 225.729,192.958 227.5,185.5 Z"/></g>
<g><path style="opacity:1" fill="#676699" d="M 209.5,185.5 C 209.489,187.017 208.823,188.184 207.5,189C 208.276,190.77 208.11,192.603 207,194.5C 206.501,200.491 206.334,206.491 206.5,212.5C 212.167,212.5 217.833,212.5 223.5,212.5C 223.5,211.5 223.5,210.5 223.5,209.5C 223.5,209.167 223.5,208.833 223.5,208.5C 224.5,208.5 225.5,208.5 226.5,208.5C 227.002,201.151 227.669,193.817 228.5,186.5C 233.939,186.822 239.273,186.822 244.5,186.5C 244.5,190.167 244.5,193.833 244.5,197.5C 241.716,216.155 238.882,234.821 236,253.5C 229.59,254.478 223.09,254.811 216.5,254.5C 217.665,246.178 218.665,237.844 219.5,229.5C 213.963,228.192 208.296,228.192 202.5,229.5C 201.066,231.22 200.233,233.22 200,235.5C 199.24,239.819 198.573,244.152 198,248.5C 193.528,251.056 188.695,252.056 183.5,251.5C 184.572,240.736 186.405,230.07 189,219.5C 189.5,213.175 189.666,206.842 189.5,200.5C 189.526,195.733 190.193,191.066 191.5,186.5C 197.409,185.545 203.409,185.211 209.5,185.5 Z"/></g>
<g><path style="opacity:0.988" fill="#67659b" d="M 74.5,172.5 C 80.9358,177.961 83.7691,184.961 83,193.5C 82.4782,196.281 81.3115,198.615 79.5,200.5C 79.4107,197.291 79.744,194.125 80.5,191C 79.131,187.286 78.4643,183.453 78.5,179.5C 77.5,179.5 76.5,179.5 75.5,179.5C 75.552,177.097 75.2186,174.764 74.5,172.5 Z"/></g>
<g><path style="opacity:0.541" fill="#e174b9" d="M 265.5,199.5 C 268.304,198.362 271.304,198.195 274.5,199C 276.584,199.697 278.251,200.864 279.5,202.5C 275.056,200.556 270.389,199.556 265.5,199.5 Z"/></g>
<g><path style="opacity:0.847" fill="#78c694" d="M 349.5,203.5 C 346.219,201.778 342.719,200.778 339,200.5C 335.752,200.94 332.585,201.607 329.5,202.5C 333.384,198.774 338.051,197.607 343.5,199C 346.106,199.792 348.106,201.292 349.5,203.5 Z"/></g>
<g><path style="opacity:0.469" fill="#edbf74" d="M 402.5,201.5 C 399.42,201.252 396.42,200.586 393.5,199.5C 391.829,199.668 390.496,200.335 389.5,201.5C 387.442,202.933 385.108,203.6 382.5,203.5C 382.5,202.5 382.5,201.5 382.5,200.5C 377.489,200.334 372.489,200.501 367.5,201C 363.753,207.957 362.086,215.457 362.5,223.5C 361.918,226.313 360.918,228.98 359.5,231.5C 360.917,221.168 362.417,210.835 364,200.5C 364.5,200 365,199.5 365.5,199C 370.833,198.333 376.167,198.333 381.5,199C 383.762,199.701 384.762,200.868 384.5,202.5C 390.313,197.592 396.313,197.259 402.5,201.5 Z"/></g>
<g><path style="opacity:0.416" fill="#e89591" d="M 431.5,203.5 C 430.596,202.791 430.263,201.791 430.5,200.5C 424.833,200.5 419.167,200.5 413.5,200.5C 413.5,202.5 413.5,204.5 413.5,206.5C 412.62,204.863 411.954,203.03 411.5,201C 411.905,200.055 412.572,199.388 413.5,199C 419.537,198.303 425.537,198.47 431.5,199.5C 431.5,200.833 431.5,202.167 431.5,203.5 Z"/></g>
<g><path style="opacity:0.367" fill="#e17e7e" d="M 463.5,202.5 C 461.085,201.186 458.252,200.519 455,200.5C 452.167,200.667 449.333,200.833 446.5,201C 445.934,201.995 445.267,202.828 444.5,203.5C 444.33,202.178 444.663,201.011 445.5,200C 448.758,199.788 451.924,199.288 455,198.5C 457.961,198.816 461.128,199.15 464.5,199.5C 464.737,200.791 464.404,201.791 463.5,202.5 Z"/></g>
<g><path style="opacity:0.961" fill="#e563a5" d="M 295.5,238.5 C 295.838,226.102 296.838,213.769 298.5,201.5C 293.859,200.873 289.193,200.54 284.5,200.5C 284.715,202.179 284.048,203.179 282.5,203.5C 282.227,201.042 283.227,199.375 285.5,198.5C 290.388,198.523 295.388,198.69 300.5,199C 301.357,199.689 302.023,200.522 302.5,201.5C 299.69,213.88 297.357,226.213 295.5,238.5 Z"/></g>
<g><path style="opacity:0.886" fill="#787597" d="M 209.5,184.5 C 210.497,184.47 211.164,184.97 211.5,186C 209.472,194.39 208.139,202.89 207.5,211.5C 213.135,212.037 218.468,211.37 223.5,209.5C 223.5,210.5 223.5,211.5 223.5,212.5C 217.833,212.5 212.167,212.5 206.5,212.5C 206.334,206.491 206.501,200.491 207,194.5C 208.11,192.603 208.276,190.77 207.5,189C 208.823,188.184 209.489,187.017 209.5,185.5C 209.5,185.167 209.5,184.833 209.5,184.5 Z"/></g>
<g><path style="opacity:0.835" fill="#72709a" d="M 79.5,201.5 C 78.0077,204.323 75.6743,205.99 72.5,206.5C 73.1667,205.167 73.8333,203.833 74.5,202.5C 76.0418,201.699 77.7085,201.366 79.5,201.5 Z"/></g>
<g><path style="opacity:1" fill="#f90597" d="M 265.5,199.5 C 270.389,199.556 275.056,200.556 279.5,202.5C 280.391,203.11 281.391,203.443 282.5,203.5C 284.048,203.179 284.715,202.179 284.5,200.5C 289.193,200.54 293.859,200.873 298.5,201.5C 296.838,213.769 295.838,226.102 295.5,238.5C 295.5,238.833 295.5,239.167 295.5,239.5C 293.77,243.883 292.77,248.55 292.5,253.5C 286.5,253.5 280.5,253.5 274.5,253.5C 274.672,252.508 274.338,251.842 273.5,251.5C 273.44,250.957 273.107,250.624 272.5,250.5C 271.107,251.863 269.441,252.696 267.5,253C 264.183,253.498 260.85,253.665 257.5,253.5C 257.5,252.5 257.5,251.5 257.5,250.5C 255.282,250.386 253.282,249.72 251.5,248.5C 250.005,239.216 249.505,229.883 250,220.5C 251.194,218.377 251.86,216.043 252,213.5C 255.104,209.915 257.937,206.248 260.5,202.5C 261.486,200.592 263.152,199.592 265.5,199.5 Z M 266.5,227.5 C 266.5,226.833 266.5,226.167 266.5,225.5C 267.737,224.035 268.737,222.368 269.5,220.5C 272.006,217.914 274.506,217.914 277,220.5C 277.667,224.5 277.667,228.5 277,232.5C 274.329,237.855 270.996,238.521 267,234.5C 266.503,232.19 266.337,229.857 266.5,227.5 Z"/></g>
<g><path style="opacity:1" fill="#5d589b" d="M 44.5,196.5 C 46.8024,198.389 49.4691,199.556 52.5,200C 53.3802,201.356 53.7135,202.856 53.5,204.5C 55.8568,204.663 58.1902,204.497 60.5,204C 61.1258,203.25 61.6258,202.416 62,201.5C 64.2255,206.791 66.0589,206.791 67.5,201.5C 69.8056,201.993 72.139,202.326 74.5,202.5C 73.8333,203.833 73.1667,205.167 72.5,206.5C 64.5632,209.667 56.8966,208.834 49.5,204C 46.8002,202.143 45.1335,199.643 44.5,196.5 Z"/></g>
<g><path style="opacity:1" fill="#fb9805" d="M 389.5,201.5 C 393.188,201.781 396.855,202.281 400.5,203C 401.833,204 401.833,205 400.5,206C 403.203,209.235 405.536,212.735 407.5,216.5C 406.638,218.087 405.971,219.754 405.5,221.5C 407.688,230.148 406.354,238.148 401.5,245.5C 400.035,244.391 399.035,244.891 398.5,247C 398.957,247.414 399.291,247.914 399.5,248.5C 397.668,249.057 396.335,250.057 395.5,251.5C 390.945,254.692 385.945,255.359 380.5,253.5C 378.427,252.7 376.76,251.367 375.5,249.5C 374.883,249.611 374.383,249.944 374,250.5C 373,257.5 372,264.5 371,271.5C 370.617,272.056 370.117,272.389 369.5,272.5C 364.797,272.563 360.13,272.229 355.5,271.5C 356.381,262.097 357.547,252.764 359,243.5C 362.029,237.229 363.195,230.562 362.5,223.5C 362.086,215.457 363.753,207.957 367.5,201C 372.489,200.501 377.489,200.334 382.5,200.5C 382.5,201.5 382.5,202.5 382.5,203.5C 385.108,203.6 387.442,202.933 389.5,201.5 Z M 389.5,217.5 C 391.281,223.627 390.615,229.46 387.5,235C 385.231,235.758 383.064,235.591 381,234.5C 379.851,231.607 379.351,228.607 379.5,225.5C 380.614,221.632 382.947,218.632 386.5,216.5C 387.417,217.127 388.417,217.461 389.5,217.5 Z"/></g>
<g><path style="opacity:1" fill="#37c967" d="M 328.5,201.5 C 328.5,202.167 328.833,202.5 329.5,202.5C 332.585,201.607 335.752,200.94 339,200.5C 342.719,200.778 346.219,201.778 349.5,203.5C 353.746,214.74 354.746,226.407 352.5,238.5C 352.5,238.833 352.5,239.167 352.5,239.5C 350.608,241.874 348.274,243.874 345.5,245.5C 344.523,247.411 343.857,249.411 343.5,251.5C 337.87,252.521 332.204,252.687 326.5,252C 324.884,251.385 323.551,250.385 322.5,249C 321.207,248.51 319.873,248.343 318.5,248.5C 318.5,250.5 318.5,252.5 318.5,254.5C 317.833,260.5 317.167,266.5 316.5,272.5C 310.955,273.712 305.455,273.712 300,272.5C 302.452,257.318 304.286,241.985 305.5,226.5C 305.5,225.833 305.5,225.167 305.5,224.5C 306.117,224.389 306.617,224.056 307,223.5C 308.493,216.201 309.66,208.868 310.5,201.5C 316.554,200.212 322.554,200.212 328.5,201.5 Z M 324.5,231.5 C 323.872,224.86 326.372,219.86 332,216.5C 337.502,221.564 338.002,227.231 333.5,233.5C 329.674,236.46 326.674,235.793 324.5,231.5 Z"/></g>
<g><path style="opacity:1" fill="#ed4241" d="M 431.5,203.5 C 431.105,209.762 431.772,215.762 433.5,221.5C 434.185,223.414 434.685,225.414 435,227.5C 435.24,225.148 436.073,223.148 437.5,221.5C 438.145,226.493 436.812,230.826 433.5,234.5C 431.377,228.007 430.21,221.34 430,214.5C 428.989,213.663 427.822,213.33 426.5,213.5C 427.087,209.737 427.087,206.071 426.5,202.5C 423.482,202.335 420.482,202.502 417.5,203C 416.426,203.739 415.759,204.739 415.5,206C 417.523,219.53 420.023,233.03 423,246.5C 424.258,243.945 426.091,243.278 428.5,244.5C 424.689,247.197 423.689,250.697 425.5,255C 419.919,257.242 414.253,259.075 408.5,260.5C 408.511,258.983 409.177,257.816 410.5,257C 413.036,256.814 415.369,256.314 417.5,255.5C 419.88,254.537 420.88,252.703 420.5,250C 419.893,246.857 419.559,243.69 419.5,240.5C 419.749,236.542 419.082,232.876 417.5,229.5C 416.659,227.621 416.325,225.621 416.5,223.5C 416.876,218.739 415.876,214.405 413.5,210.5C 413.5,209.167 413.5,207.833 413.5,206.5C 413.5,204.5 413.5,202.5 413.5,200.5C 419.167,200.5 424.833,200.5 430.5,200.5C 430.263,201.791 430.596,202.791 431.5,203.5 Z"/></g>
<g><path style="opacity:0.992" fill="#e7a84f" d="M 402.5,201.5 C 406.238,204.626 408.738,208.626 410,213.5C 410.407,216.682 410.907,219.849 411.5,223C 411.472,224.07 411.139,224.903 410.5,225.5C 409.712,221.132 408.712,216.799 407.5,212.5C 405.247,209.027 403.581,205.36 402.5,201.5 Z"/></g>
<g><path style="opacity:1" fill="#fa3334" d="M 463.5,202.5 C 462.542,202.953 461.708,203.619 461,204.5C 457.067,214.025 452.9,223.359 448.5,232.5C 443.782,236.659 441.782,241.992 442.5,248.5C 439.979,250.03 438.979,252.364 439.5,255.5C 436.585,257.651 434.918,260.651 434.5,264.5C 433.5,264.5 432.5,264.5 431.5,264.5C 429.507,269.309 425.84,272.142 420.5,273C 413.341,274.91 408.007,272.744 404.5,266.5C 405.432,264.235 406.765,262.235 408.5,260.5C 414.253,259.075 419.919,257.242 425.5,255C 423.689,250.697 424.689,247.197 428.5,244.5C 426.091,243.278 424.258,243.945 423,246.5C 420.023,233.03 417.523,219.53 415.5,206C 415.759,204.739 416.426,203.739 417.5,203C 420.482,202.502 423.482,202.335 426.5,202.5C 427.087,206.071 427.087,209.737 426.5,213.5C 427.822,213.33 428.989,213.663 430,214.5C 430.21,221.34 431.377,228.007 433.5,234.5C 436.812,230.826 438.145,226.493 437.5,221.5C 437.5,221.167 437.5,220.833 437.5,220.5C 438.496,220.586 439.329,220.252 440,219.5C 440.822,216.883 441.322,214.216 441.5,211.5C 443.585,209.316 444.585,206.649 444.5,203.5C 445.267,202.828 445.934,201.995 446.5,201C 449.333,200.833 452.167,200.667 455,200.5C 458.252,200.519 461.085,201.186 463.5,202.5 Z"/></g>
<g><path style="opacity:0.278" fill="#dd7976" d="M 444.5,203.5 C 444.585,206.649 443.585,209.316 441.5,211.5C 441.98,208.557 442.98,205.89 444.5,203.5 Z"/></g>
<g><path style="opacity:0.463" fill="#e08282" d="M 431.5,203.5 C 432.489,209.322 433.156,215.322 433.5,221.5C 431.772,215.762 431.105,209.762 431.5,203.5 Z"/></g>
<g><path style="opacity:0.706" fill="#93d0a7" d="M 328.5,201.5 C 322.554,200.212 316.554,200.212 310.5,201.5C 309.66,208.868 308.493,216.201 307,223.5C 306.617,224.056 306.117,224.389 305.5,224.5C 306.196,216.386 307.529,208.386 309.5,200.5C 310.025,199.808 310.692,199.308 311.5,199C 316.167,198.333 320.833,198.333 325.5,199C 327.119,199.236 328.119,200.069 328.5,201.5 Z"/></g>
<g><path style="opacity:0.945" fill="#f0b45f" d="M 389.5,217.5 C 388.417,217.461 387.417,217.127 386.5,216.5C 382.947,218.632 380.614,221.632 379.5,225.5C 379.5,223.833 379.5,222.167 379.5,220.5C 380.968,219.221 381.635,217.554 381.5,215.5C 383.857,215.337 386.19,215.503 388.5,216C 389.056,216.383 389.389,216.883 389.5,217.5 Z"/></g>
<g><path style="opacity:0.012" fill="#f19f9d" d="M 413.5,210.5 C 415.876,214.405 416.876,218.739 416.5,223.5C 415.34,219.319 414.34,214.985 413.5,210.5 Z"/></g>
<g><path style="opacity:0.765" fill="#e57b76" d="M 463.5,202.5 C 459.307,213.885 454.307,224.885 448.5,235.5C 448.5,234.5 448.5,233.5 448.5,232.5C 452.9,223.359 457.067,214.025 461,204.5C 461.708,203.619 462.542,202.953 463.5,202.5 Z"/></g>
<g><path style="opacity:0.969" fill="#db5858" d="M 441.5,211.5 C 441.322,214.216 440.822,216.883 440,219.5C 439.329,220.252 438.496,220.586 437.5,220.5C 438.463,217.256 439.796,214.256 441.5,211.5 Z"/></g>
<g><path style="opacity:0.616" fill="#e57fb3" d="M 269.5,220.5 C 268.737,222.368 267.737,224.035 266.5,225.5C 266.5,223.833 266.5,222.167 266.5,220.5C 267.5,220.5 268.5,220.5 269.5,220.5 Z"/></g>
<g><path style="opacity:0.761" fill="#6dc288" d="M 349.5,203.5 C 352.941,207.06 354.774,211.393 355,216.5C 355.667,221.167 355.667,225.833 355,230.5C 354.902,233.522 354.068,236.189 352.5,238.5C 354.746,226.407 353.746,214.74 349.5,203.5 Z"/></g>
<g><path style="opacity:1" fill="#f29c20" d="M 402.5,201.5 C 403.581,205.36 405.247,209.027 407.5,212.5C 408.712,216.799 409.712,221.132 410.5,225.5C 410.5,226.167 410.5,226.833 410.5,227.5C 409.351,227.791 408.684,228.624 408.5,230C 407.638,233.811 406.971,237.644 406.5,241.5C 404.938,245.392 402.605,248.725 399.5,251.5C 398.167,251.5 396.833,251.5 395.5,251.5C 396.335,250.057 397.668,249.057 399.5,248.5C 399.291,247.914 398.957,247.414 398.5,247C 399.035,244.891 400.035,244.391 401.5,245.5C 406.354,238.148 407.688,230.148 405.5,221.5C 405.971,219.754 406.638,218.087 407.5,216.5C 405.536,212.735 403.203,209.235 400.5,206C 401.833,205 401.833,204 400.5,203C 396.855,202.281 393.188,201.781 389.5,201.5C 390.496,200.335 391.829,199.668 393.5,199.5C 396.42,200.586 399.42,201.252 402.5,201.5 Z"/></g>
<g><path style="opacity:1" fill="#f3a133" d="M 389.5,217.5 C 390.833,217.5 392.167,217.5 393.5,217.5C 392.773,222.934 393.773,227.934 396.5,232.5C 394.362,233.744 392.362,235.244 390.5,237C 382.788,239.655 378.121,237.155 376.5,229.5C 376.936,226.821 377.436,224.155 378,221.5C 378.383,220.944 378.883,220.611 379.5,220.5C 379.5,222.167 379.5,223.833 379.5,225.5C 379.351,228.607 379.851,231.607 381,234.5C 383.064,235.591 385.231,235.758 387.5,235C 390.615,229.46 391.281,223.627 389.5,217.5 Z"/></g>
<g><path style="opacity:1" fill="#0ba2f9" d="M 101.5,207.5 C 98.1839,223.36 97.6839,239.36 100,255.5C 102.268,265.184 104.602,274.851 107,284.5C 110.096,289.54 112.596,294.874 114.5,300.5C 115.183,300.863 115.85,301.196 116.5,301.5C 116.511,303.547 116.844,305.547 117.5,307.5C 119.906,311.676 122.239,315.842 124.5,320C 123.852,321.44 123.519,322.94 123.5,324.5C 124.209,325.404 125.209,325.737 126.5,325.5C 126.5,326.833 126.5,328.167 126.5,329.5C 124.179,329.771 122.179,329.104 120.5,327.5C 118.929,328.309 117.262,328.643 115.5,328.5C 113.163,322.746 109.663,317.746 105,313.5C 104.51,312.207 104.343,310.873 104.5,309.5C 102.678,309.169 101.011,308.502 99.5,307.5C 96.9864,304.636 95.3197,301.302 94.5,297.5C 91.2585,290.911 89.0919,283.911 88,276.5C 84.4974,272.168 82.9974,267.168 83.5,261.5C 83.0805,259.906 82.4138,258.406 81.5,257C 82.5089,255.832 83.5089,254.665 84.5,253.5C 83.7979,243.024 83.1312,232.524 82.5,222C 84.5334,207.997 85.8667,208.164 86.5,222.5C 89.9733,218.67 90.3066,214.504 87.5,210C 89.0199,207.973 90.3533,205.806 91.5,203.5C 90.7766,201.218 90.4433,198.884 90.5,196.5C 91.9778,196.762 93.3112,196.429 94.5,195.5C 93.814,193.936 93.9806,192.269 95,190.5C 97.124,185.219 100.791,181.553 106,179.5C 106.71,180.973 107.876,181.64 109.5,181.5C 109.051,184.641 108.051,187.641 106.5,190.5C 105.672,191.415 104.672,192.081 103.5,192.5C 102.593,197.477 101.927,202.477 101.5,207.5 Z"/></g>
<g><path style="opacity:0.973" fill="#6bc589" d="M 324.5,231.5 C 323.359,228.36 323.192,225.027 324,221.5C 325.438,220.1 326.271,218.433 326.5,216.5C 337.053,213.729 340.886,217.729 338,228.5C 336.688,231.441 335.188,234.274 333.5,237C 328.253,238.557 325.253,236.724 324.5,231.5 Z M 324.5,231.5 C 326.674,235.793 329.674,236.46 333.5,233.5C 338.002,227.231 337.502,221.564 332,216.5C 326.372,219.86 323.872,224.86 324.5,231.5 Z"/></g>
<g><path style="opacity:0.016" fill="#f9bbb7" d="M 417.5,229.5 C 419.082,232.876 419.749,236.542 419.5,240.5C 418.313,237.054 417.646,233.387 417.5,229.5 Z"/></g>
<g><path style="opacity:1" fill="#e94d48" d="M 448.5,232.5 C 448.5,233.5 448.5,234.5 448.5,235.5C 446.386,236.784 445.386,238.784 445.5,241.5C 445.293,244.241 444.293,246.574 442.5,248.5C 441.782,241.992 443.782,236.659 448.5,232.5 Z"/></g>
<g><path style="opacity:1" fill="#df4092" d="M 260.5,202.5 C 257.937,206.248 255.104,209.915 252,213.5C 251.86,216.043 251.194,218.377 250,220.5C 249.505,229.883 250.005,239.216 251.5,248.5C 249.837,246.507 248.67,244.174 248,241.5C 245.332,228.487 247.665,216.487 255,205.5C 256.488,203.84 258.321,202.84 260.5,202.5 Z"/></g>
<g><path style="opacity:0.957" fill="#e0469a" d="M 266.5,227.5 C 266.337,229.857 266.503,232.19 267,234.5C 270.996,238.521 274.329,237.855 277,232.5C 277.667,228.5 277.667,224.5 277,220.5C 274.506,217.914 272.006,217.914 269.5,220.5C 269.477,217.879 270.811,216.545 273.5,216.5C 275.639,217.977 277.972,218.977 280.5,219.5C 281.624,226.623 279.957,232.79 275.5,238C 271.845,240.335 268.679,239.835 266,236.5C 265.195,233.304 265.362,230.304 266.5,227.5 Z"/></g>
<g><path style="opacity:0.282" fill="#e8b261" d="M 410.5,227.5 C 410.554,232.659 409.221,237.325 406.5,241.5C 406.971,237.644 407.638,233.811 408.5,230C 408.684,228.624 409.351,227.791 410.5,227.5 Z"/></g>
<g><path style="opacity:0.305" fill="#61b5df" d="M 87.5,197.5 C 87.6865,202.452 86.1865,206.785 83,210.5C 82.4509,216.362 81.1176,222.029 79,227.5C 78.5002,236.827 78.3335,246.161 78.5,255.5C 76.3213,239.686 77.488,224.019 82,208.5C 83.3366,204.493 85.1699,200.827 87.5,197.5 Z"/></g>
<g><path style="opacity:0.18" fill="#e78691" d="M 448.5,235.5 C 448.008,237.819 447.008,239.819 445.5,241.5C 445.386,238.784 446.386,236.784 448.5,235.5 Z"/></g>
<g><path style="opacity:0.486" fill="#6dc383" d="M 352.5,239.5 C 350.943,244.706 347.943,248.706 343.5,251.5C 343.857,249.411 344.523,247.411 345.5,245.5C 348.274,243.874 350.608,241.874 352.5,239.5 Z"/></g>
<g><path style="opacity:1" fill="#1ea1ed" d="M 111.5,184.5 C 107.836,190.838 105.169,197.505 103.5,204.5C 102.833,205.5 102.167,206.5 101.5,207.5C 101.927,202.477 102.593,197.477 103.5,192.5C 104.672,192.081 105.672,191.415 106.5,190.5C 108.051,187.641 109.051,184.641 109.5,181.5C 107.876,181.64 106.71,180.973 106,179.5C 100.791,181.553 97.124,185.219 95,190.5C 93.9806,192.269 93.814,193.936 94.5,195.5C 93.3112,196.429 91.9778,196.762 90.5,196.5C 90.4433,198.884 90.7766,201.218 91.5,203.5C 90.3533,205.806 89.0199,207.973 87.5,210C 90.3066,214.504 89.9733,218.67 86.5,222.5C 85.8667,208.164 84.5334,207.997 82.5,222C 83.1312,232.524 83.7979,243.024 84.5,253.5C 83.5089,254.665 82.5089,255.832 81.5,257C 82.4138,258.406 83.0805,259.906 83.5,261.5C 81.1368,260.059 79.4701,258.059 78.5,255.5C 78.3335,246.161 78.5002,236.827 79,227.5C 81.1176,222.029 82.4509,216.362 83,210.5C 86.1865,206.785 87.6865,202.452 87.5,197.5C 90.6903,190.974 95.0236,185.308 100.5,180.5C 103.725,177.539 107.391,175.039 111.5,173C 113.729,169.972 116.729,168.138 120.5,167.5C 120.649,168.552 120.483,169.552 120,170.5C 115.379,174.075 112.546,178.741 111.5,184.5 Z"/></g>
<g><path style="opacity:1" fill="#747097" d="M 189.5,200.5 C 189.666,206.842 189.5,213.175 189,219.5C 186.405,230.07 184.572,240.736 183.5,251.5C 188.695,252.056 193.528,251.056 198,248.5C 198.573,244.152 199.24,239.819 200,235.5C 200.233,233.22 201.066,231.22 202.5,229.5C 208.296,228.192 213.963,228.192 219.5,229.5C 214.456,229.173 209.456,229.506 204.5,230.5C 203.609,237.703 202.276,244.703 200.5,251.5C 194.455,253.393 188.121,254.06 181.5,253.5C 181.5,252.5 181.5,251.5 181.5,250.5C 183.778,233.645 186.445,216.978 189.5,200.5 Z"/></g>
<g><path style="opacity:0.898" fill="#e98c86" d="M 442.5,248.5 C 442.293,251.241 441.293,253.574 439.5,255.5C 438.979,252.364 439.979,250.03 442.5,248.5 Z"/></g>
<g><path style="opacity:0.863" fill="#e3ae5f" d="M 375.5,249.5 C 374.817,257.618 373.483,265.618 371.5,273.5C 365.528,274.664 359.528,274.83 353.5,274C 352.199,272.384 352.199,270.884 353.5,269.5C 353.33,270.822 353.663,271.989 354.5,273C 359.684,273.816 364.684,273.65 369.5,272.5C 370.117,272.389 370.617,272.056 371,271.5C 372,264.5 373,257.5 374,250.5C 374.383,249.944 374.883,249.611 375.5,249.5 Z"/></g>
<g><path style="opacity:1" fill="#58be78" d="M 343.5,251.5 C 340.773,254.605 337.273,255.938 333,255.5C 328.19,255.761 324.19,254.095 321,250.5C 320.517,251.448 320.351,252.448 320.5,253.5C 319.833,253.833 319.167,254.167 318.5,254.5C 318.5,252.5 318.5,250.5 318.5,248.5C 319.873,248.343 321.207,248.51 322.5,249C 323.551,250.385 324.884,251.385 326.5,252C 332.204,252.687 337.87,252.521 343.5,251.5 Z"/></g>
<g><path style="opacity:0.325" fill="#a09cb6" d="M 181.5,250.5 C 181.5,251.5 181.5,252.5 181.5,253.5C 188.121,254.06 194.455,253.393 200.5,251.5C 200.5,252.5 200.5,253.5 200.5,254.5C 193.833,254.5 187.167,254.5 180.5,254.5C 180.232,252.901 180.566,251.568 181.5,250.5 Z"/></g>
<g><path style="opacity:0.919" fill="#d54296" d="M 251.5,248.5 C 253.282,249.72 255.282,250.386 257.5,250.5C 257.5,251.5 257.5,252.5 257.5,253.5C 260.85,253.665 264.183,253.498 267.5,253C 269.441,252.696 271.107,251.863 272.5,250.5C 273.107,250.624 273.44,250.957 273.5,251.5C 272.251,253.136 270.584,254.303 268.5,255C 260.968,257.216 255.302,255.05 251.5,248.5 Z"/></g>
<g><path style="opacity:0.576" fill="#d762ac" d="M 295.5,239.5 C 295.351,244.887 294.351,250.054 292.5,255C 287.167,255.667 281.833,255.667 276.5,255C 275.584,254.722 274.918,254.222 274.5,253.5C 280.5,253.5 286.5,253.5 292.5,253.5C 292.77,248.55 293.77,243.883 295.5,239.5 Z"/></g>
<g><path style="opacity:0.173" fill="#e6b160" d="M 395.5,251.5 C 396.833,251.5 398.167,251.5 399.5,251.5C 397.879,253.117 395.879,254.284 393.5,255C 389.833,255.667 386.167,255.667 382.5,255C 381.584,254.722 380.918,254.222 380.5,253.5C 385.945,255.359 390.945,254.692 395.5,251.5 Z"/></g>
<g><path style="opacity:0.373" fill="#de7876" d="M 439.5,255.5 C 438.592,258.987 436.926,261.987 434.5,264.5C 434.918,260.651 436.585,257.651 439.5,255.5 Z"/></g>
<g><path style="opacity:1" fill="#58aedc" d="M 78.5,255.5 C 79.4701,258.059 81.1368,260.059 83.5,261.5C 82.9974,267.168 84.4974,272.168 88,276.5C 89.0919,283.911 91.2585,290.911 94.5,297.5C 86.6443,284.619 81.311,270.619 78.5,255.5 Z"/></g>
<g><path style="opacity:1" fill="#e9a135" d="M 362.5,223.5 C 363.195,230.562 362.029,237.229 359,243.5C 357.547,252.764 356.381,262.097 355.5,271.5C 360.13,272.229 364.797,272.563 369.5,272.5C 364.684,273.65 359.684,273.816 354.5,273C 353.663,271.989 353.33,270.822 353.5,269.5C 354.871,256.724 356.871,244.057 359.5,231.5C 360.918,228.98 361.918,226.313 362.5,223.5 Z"/></g>
<g><path style="opacity:0.506" fill="#7cc193" d="M 305.5,226.5 C 304.286,241.985 302.452,257.318 300,272.5C 305.455,273.712 310.955,273.712 316.5,272.5C 317.167,266.5 317.833,260.5 318.5,254.5C 319.167,254.167 319.833,253.833 320.5,253.5C 319.581,260.441 318.248,267.275 316.5,274C 310.251,274.809 304.084,274.642 298,273.5C 300.099,257.68 302.599,242.013 305.5,226.5 Z"/></g>
<g><path style="opacity:0.929" fill="#dc6b69" d="M 417.5,255.5 C 415.369,256.314 413.036,256.814 410.5,257C 409.177,257.816 408.511,258.983 408.5,260.5C 406.765,262.235 405.432,264.235 404.5,266.5C 408.007,272.744 413.341,274.91 420.5,273C 425.84,272.142 429.507,269.309 431.5,264.5C 432.5,264.5 433.5,264.5 434.5,264.5C 430.79,271.698 424.79,275.364 416.5,275.5C 410.165,275.168 405.165,272.502 401.5,267.5C 403.74,262.113 406.907,257.446 411,253.5C 412.879,255.013 415.046,255.679 417.5,255.5 Z"/></g>
<g><path style="opacity:0.976" fill="#59aad9" d="M 103.5,204.5 C 99.0761,226.293 99.5761,247.96 105,269.5C 108.566,280.291 112.399,290.958 116.5,301.5C 115.85,301.196 115.183,300.863 114.5,300.5C 112.596,294.874 110.096,289.54 107,284.5C 104.602,274.851 102.268,265.184 100,255.5C 97.6839,239.36 98.1839,223.36 101.5,207.5C 102.167,206.5 102.833,205.5 103.5,204.5 Z"/></g>
<g><path style="opacity:1" fill="#666598" d="M 226.5,316.5 C 226.037,319.482 225.704,322.482 225.5,325.5C 216.891,325.666 208.224,325.999 199.5,326.5C 197.314,328.679 196.981,331.179 198.5,334C 196.002,338.103 195.002,342.603 195.5,347.5C 190.5,347.5 185.5,347.5 180.5,347.5C 180.5,342.167 180.5,336.833 180.5,331.5C 180.5,331.167 180.5,330.833 180.5,330.5C 181.117,330.389 181.617,330.056 182,329.5C 182.923,324.521 183.756,319.521 184.5,314.5C 185.086,314.291 185.586,313.957 186,313.5C 186.245,304.738 187.245,296.072 189,287.5C 189.233,285.22 190.066,283.22 191.5,281.5C 196.833,281.167 202.167,280.833 207.5,280.5C 215.134,280.303 222.634,280.97 230,282.5C 229.672,287.069 229.838,291.569 230.5,296C 221.5,296.333 212.5,296.667 203.5,297C 202.533,301.401 202.2,305.901 202.5,310.5C 210.466,311.365 218.466,311.698 226.5,311.5C 226.5,313.167 226.5,314.833 226.5,316.5 Z"/></g>
<g><path style="opacity:0.973" fill="#8f8ba9" d="M 226.5,316.5 C 226.5,314.833 226.5,313.167 226.5,311.5C 218.466,311.698 210.466,311.365 202.5,310.5C 202.2,305.901 202.533,301.401 203.5,297C 212.5,296.667 221.5,296.333 230.5,296C 229.838,291.569 229.672,287.069 230,282.5C 222.634,280.97 215.134,280.303 207.5,280.5C 202.167,280.833 196.833,281.167 191.5,281.5C 190.066,283.22 189.233,285.22 189,287.5C 187.245,296.072 186.245,304.738 186,313.5C 185.586,313.957 185.086,314.291 184.5,314.5C 183.756,319.521 182.923,324.521 182,329.5C 181.617,330.056 181.117,330.389 180.5,330.5C 182.687,313.42 185.354,296.42 188.5,279.5C 203.696,278.173 218.863,278.173 234,279.5C 233.949,285.849 232.782,292.016 230.5,298C 221.84,298.5 213.173,298.666 204.5,298.5C 204.54,301.881 204.207,305.214 203.5,308.5C 211.5,308.5 219.5,308.5 227.5,308.5C 227.806,311.385 227.473,314.052 226.5,316.5 Z"/></g>
<g><path style="opacity:1" fill="#fa9809" d="M 355.5,297.5 C 357.279,299.344 359.612,300.01 362.5,299.5C 362.5,303.5 362.5,307.5 362.5,311.5C 359.102,311.18 355.768,311.513 352.5,312.5C 351.583,315.758 351.249,319.091 351.5,322.5C 348.263,325.919 347.596,329.919 349.5,334.5C 351.861,334.326 354.194,333.993 356.5,333.5C 356.5,338.167 356.5,342.833 356.5,347.5C 350.732,349.297 344.732,349.964 338.5,349.5C 337.167,348.833 336.167,347.833 335.5,346.5C 333.619,342.393 332.619,338.059 332.5,333.5C 333.037,328.151 333.703,322.817 334.5,317.5C 334.493,315.631 334.16,313.964 333.5,312.5C 333.179,310.952 332.179,310.285 330.5,310.5C 330.646,306.481 330.979,302.481 331.5,298.5C 333.604,298.799 335.604,298.466 337.5,297.5C 338.439,293.235 338.772,288.902 338.5,284.5C 344.409,283.545 350.409,283.211 356.5,283.5C 355.771,288.13 355.437,292.797 355.5,297.5 Z"/></g>
<g><path style="opacity:0.157" fill="#e6be77" d="M 356.5,297.5 C 356.167,297.5 355.833,297.5 355.5,297.5C 355.437,292.797 355.771,288.13 356.5,283.5C 350.409,283.211 344.409,283.545 338.5,284.5C 344.412,282.544 350.745,281.877 357.5,282.5C 357.084,287.493 356.751,292.493 356.5,297.5 Z"/></g>
<g><path style="opacity:0.949" fill="#df559e" d="M 268.5,299.5 C 266.86,298.68 265.193,297.847 263.5,297C 257.5,296.333 251.5,296.333 245.5,297C 244.54,298.419 243.707,299.919 243,301.5C 241.293,300.862 239.46,300.862 237.5,301.5C 241.486,296.092 246.986,293.425 254,293.5C 256.824,294.054 259.657,294.554 262.5,295C 265.177,295.814 267.177,297.314 268.5,299.5 Z"/></g>
<g><path style="opacity:0.463" fill="#88c799" d="M 323.5,307.5 C 322.833,307.167 322.167,306.833 321.5,306.5C 319.965,302.041 316.965,298.875 312.5,297C 306.593,295.639 300.593,295.139 294.5,295.5C 303.849,292.203 312.349,293.869 320,300.5C 321.705,302.577 322.872,304.91 323.5,307.5 Z"/></g>
<g><path style="opacity:0.863" fill="#e2a64c" d="M 338.5,284.5 C 338.772,288.902 338.439,293.235 337.5,297.5C 335.604,298.466 333.604,298.799 331.5,298.5C 330.979,302.481 330.646,306.481 330.5,310.5C 332.179,310.285 333.179,310.952 333.5,312.5C 331.833,312.5 330.167,312.5 328.5,312.5C 328.506,307.785 329.006,303.118 330,298.5C 332,297.833 334,297.167 336,296.5C 336.335,292.264 337.168,288.264 338.5,284.5 Z"/></g>
<g><path style="opacity:0.984" fill="#51aadd" d="M 99.5,307.5 C 101.011,308.502 102.678,309.169 104.5,309.5C 104.343,310.873 104.51,312.207 105,313.5C 109.663,317.746 113.163,322.746 115.5,328.5C 118.323,331.475 120.656,334.808 122.5,338.5C 113.129,329.423 105.463,319.09 99.5,307.5 Z"/></g>
<g><path style="opacity:0.898" fill="#6fbe86" d="M 292.5,296.5 C 287.752,301.906 283.419,307.573 279.5,313.5C 281.216,305.79 285.549,300.123 292.5,296.5 Z"/></g>
<g><path style="opacity:0.427" fill="#e6b362" d="M 355.5,297.5 C 355.833,297.5 356.167,297.5 356.5,297.5C 359.5,297.5 362.5,297.5 365.5,297.5C 365.15,302.569 364.317,307.569 363,312.5C 359.943,313.451 356.777,313.784 353.5,313.5C 353.142,316.689 352.475,319.689 351.5,322.5C 351.249,319.091 351.583,315.758 352.5,312.5C 355.768,311.513 359.102,311.18 362.5,311.5C 362.5,307.5 362.5,303.5 362.5,299.5C 359.612,300.01 357.279,299.344 355.5,297.5 Z"/></g>
<g><path style="opacity:1" fill="#f90597" d="M 268.5,299.5 C 268.833,299.5 269.167,299.5 269.5,299.5C 273.458,307.626 275.125,316.293 274.5,325.5C 265.139,325.746 256.139,326.746 247.5,328.5C 247.5,328.833 247.5,329.167 247.5,329.5C 247.227,331.451 247.893,332.951 249.5,334C 253.826,334.772 257.993,334.272 262,332.5C 263.607,333.074 265.107,333.74 266.5,334.5C 267.252,336.761 268.252,338.927 269.5,341C 268.363,343.041 267.03,344.875 265.5,346.5C 259.321,348.419 252.988,349.419 246.5,349.5C 244.209,347.42 241.542,345.754 238.5,344.5C 237.57,341.638 235.903,339.305 233.5,337.5C 232.863,333.535 231.863,329.702 230.5,326C 233.02,317.906 235.354,309.74 237.5,301.5C 239.46,300.862 241.293,300.862 243,301.5C 243.707,299.919 244.54,298.419 245.5,297C 251.5,296.333 257.5,296.333 263.5,297C 265.193,297.847 266.86,298.68 268.5,299.5 Z M 256.5,316.5 C 253.612,317.01 251.279,316.344 249.5,314.5C 250.881,312.629 252.715,311.296 255,310.5C 258.725,312.049 259.225,314.049 256.5,316.5 Z"/></g>
<g><path style="opacity:1" fill="#e12f92" d="M 237.5,301.5 C 235.354,309.74 233.02,317.906 230.5,326C 231.863,329.702 232.863,333.535 233.5,337.5C 235.903,339.305 237.57,341.638 238.5,344.5C 241.542,345.754 244.209,347.42 246.5,349.5C 245.833,349.5 245.167,349.5 244.5,349.5C 236.089,347.421 231.089,342.088 229.5,333.5C 229.268,325.742 229.935,318.076 231.5,310.5C 232.723,306.951 234.723,303.951 237.5,301.5 Z"/></g>
<g><path style="opacity:0.192" fill="#f489cd" d="M 249.5,314.5 C 251.279,316.344 253.612,317.01 256.5,316.5C 254.052,317.473 251.385,317.806 248.5,317.5C 248.263,316.209 248.596,315.209 249.5,314.5 Z"/></g>
<g><path style="opacity:1" fill="#37c967" d="M 294.5,295.5 C 300.593,295.139 306.593,295.639 312.5,297C 316.965,298.875 319.965,302.041 321.5,306.5C 322.154,309.494 322.821,312.494 323.5,315.5C 323.343,318.619 322.676,321.619 321.5,324.5C 312.636,325.154 303.803,325.82 295,326.5C 294.242,328.769 294.409,330.936 295.5,333C 298.107,333.818 300.774,334.318 303.5,334.5C 305.333,334.415 306.666,333.748 307.5,332.5C 309.137,331.782 310.803,331.616 312.5,332C 314.506,335.004 316.506,338.004 318.5,341C 316.461,342.925 314.795,345.092 313.5,347.5C 313.158,348.338 312.492,348.672 311.5,348.5C 308.175,348.831 304.841,349.164 301.5,349.5C 297.635,348.345 293.635,347.679 289.5,347.5C 288.833,347.167 288.167,346.833 287.5,346.5C 284.478,342.259 281.978,337.593 280,332.5C 279.5,326.175 279.334,319.842 279.5,313.5C 283.419,307.573 287.752,301.906 292.5,296.5C 292.842,295.662 293.508,295.328 294.5,295.5 Z M 307.5,316.5 C 304.5,316.5 301.5,316.5 298.5,316.5C 299.802,311.812 302.635,310.479 307,312.5C 307.49,313.793 307.657,315.127 307.5,316.5 Z"/></g>
<g><path style="opacity:0.949" fill="#6dc58b" d="M 307.5,316.5 C 307.657,315.127 307.49,313.793 307,312.5C 302.635,310.479 299.802,311.812 298.5,316.5C 296.889,311.941 298.723,309.608 304,309.5C 306.54,309.875 308.374,311.208 309.5,313.5C 309.547,315.038 308.88,316.038 307.5,316.5 Z M 307.5,316.5 C 304.5,316.5 301.5,316.5 298.5,316.5C 299.802,311.812 302.635,310.479 307,312.5C 307.49,313.793 307.657,315.127 307.5,316.5 Z"/></g>
<g><path style="opacity:1" fill="#55c075" d="M 321.5,306.5 C 322.167,306.833 322.833,307.167 323.5,307.5C 326.281,313.316 326.948,319.316 325.5,325.5C 316.176,327.062 306.842,328.062 297.5,328.5C 298.189,331.353 300.022,333.019 303,333.5C 304.356,332.62 305.856,332.286 307.5,332.5C 306.666,333.748 305.333,334.415 303.5,334.5C 300.774,334.318 298.107,333.818 295.5,333C 294.409,330.936 294.242,328.769 295,326.5C 303.803,325.82 312.636,325.154 321.5,324.5C 322.676,321.619 323.343,318.619 323.5,315.5C 322.821,312.494 322.154,309.494 321.5,306.5 Z"/></g>
<g><path style="opacity:0.894" fill="#e3a84f" d="M 333.5,312.5 C 334.16,313.964 334.493,315.631 334.5,317.5C 333.703,322.817 333.037,328.151 332.5,333.5C 332.619,338.059 333.619,342.393 335.5,346.5C 333.665,345.878 332.498,344.544 332,342.5C 331.262,340.047 330.762,337.547 330.5,335C 331.46,327.482 332.46,319.982 333.5,312.5 Z"/></g>
<g><path style="opacity:1" fill="#d64f96" d="M 269.5,299.5 C 274.497,305.474 277.164,312.474 277.5,320.5C 277.5,321.833 277.5,323.167 277.5,324.5C 276.751,325.531 276.085,326.698 275.5,328C 266.173,328.5 256.839,328.666 247.5,328.5C 256.139,326.746 265.139,325.746 274.5,325.5C 275.125,316.293 273.458,307.626 269.5,299.5 Z"/></g>
<g><path style="opacity:0.349" fill="#d668a8" d="M 231.5,310.5 C 229.935,318.076 229.268,325.742 229.5,333.5C 228.348,328.015 228.182,322.349 229,316.5C 229.566,314.277 230.4,312.277 231.5,310.5 Z"/></g>
<g><path style="opacity:0.102" fill="#89c19c" d="M 325.5,325.5 C 325.5,326.5 325.5,327.5 325.5,328.5C 316.167,328.5 306.833,328.5 297.5,328.5C 306.842,328.062 316.176,327.062 325.5,325.5 Z"/></g>
<g><path style="opacity:0.667" fill="#77be8c" d="M 279.5,313.5 C 279.334,319.842 279.5,326.175 280,332.5C 281.978,337.593 284.478,342.259 287.5,346.5C 280.402,340.964 277.068,333.631 277.5,324.5C 277.5,323.167 277.5,321.833 277.5,320.5C 278.167,318.167 278.833,315.833 279.5,313.5 Z"/></g>
<g><path style="opacity:0.91" fill="#4fa9d9" d="M 116.5,301.5 C 126.421,321.596 138.587,340.262 153,357.5C 153.791,358.745 154.291,360.078 154.5,361.5C 153.761,361.631 153.094,361.464 152.5,361C 143.259,350.041 135.093,338.207 128,325.5C 126.644,324.62 125.144,324.286 123.5,324.5C 123.519,322.94 123.852,321.44 124.5,320C 122.239,315.842 119.906,311.676 117.5,307.5C 116.844,305.547 116.511,303.547 116.5,301.5 Z"/></g>
<g><path style="opacity:0.447" fill="#d64395" d="M 247.5,329.5 C 248.744,331.8 250.744,333.134 253.5,333.5C 256.54,332.563 259.374,331.229 262,329.5C 264.378,330.377 265.878,332.044 266.5,334.5C 265.107,333.74 263.607,333.074 262,332.5C 257.993,334.272 253.826,334.772 249.5,334C 247.893,332.951 247.227,331.451 247.5,329.5 Z"/></g>
<g><path style="opacity:0.969" fill="#6dbe87" d="M 313.5,347.5 C 314.795,345.092 316.461,342.925 318.5,341C 316.506,338.004 314.506,335.004 312.5,332C 310.803,331.616 309.137,331.782 307.5,332.5C 308.406,330.086 310.072,329.253 312.5,330C 314.647,333.115 317.147,335.948 320,338.5C 320.814,343.535 318.647,346.535 313.5,347.5 Z"/></g>
<g><path style="opacity:0.898" fill="#d3599d" d="M 266.5,334.5 C 273.412,339.361 273.079,343.361 265.5,346.5C 267.03,344.875 268.363,343.041 269.5,341C 268.252,338.927 267.252,336.761 266.5,334.5 Z"/></g>
<g><path style="opacity:0.894" fill="#e3a045" d="M 351.5,322.5 C 351.037,325.482 350.704,328.482 350.5,331.5C 352.467,331.739 354.301,331.406 356,330.5C 357.188,331.563 357.688,332.897 357.5,334.5C 357.5,339.167 357.5,343.833 357.5,348.5C 351.185,351.647 344.852,351.981 338.5,349.5C 344.732,349.964 350.732,349.297 356.5,347.5C 356.5,342.833 356.5,338.167 356.5,333.5C 354.194,333.993 351.861,334.326 349.5,334.5C 347.596,329.919 348.263,325.919 351.5,322.5 Z"/></g>
<g><path style="opacity:0.184" fill="#e5bf82" d="M 357.5,334.5 C 358.23,338.031 358.896,341.697 359.5,345.5C 359.058,346.739 358.391,347.739 357.5,348.5C 357.5,343.833 357.5,339.167 357.5,334.5 Z"/></g>
<g><path style="opacity:0.988" fill="#7d7a9a" d="M 225.5,325.5 C 217.54,327.149 209.207,328.149 200.5,328.5C 199.168,335.828 197.835,343.161 196.5,350.5C 190.463,350.829 184.463,350.496 178.5,349.5C 178.291,348.914 177.957,348.414 177.5,348C 178.113,342.339 179.113,336.839 180.5,331.5C 180.5,336.833 180.5,342.167 180.5,347.5C 185.5,347.5 190.5,347.5 195.5,347.5C 195.002,342.603 196.002,338.103 198.5,334C 196.981,331.179 197.314,328.679 199.5,326.5C 208.224,325.999 216.891,325.666 225.5,325.5 Z"/></g>
<g><path style="opacity:0.502" fill="#d559a0" d="M 265.5,346.5 C 264.251,348.136 262.584,349.303 260.5,350C 254.984,350.817 249.65,350.651 244.5,349.5C 245.167,349.5 245.833,349.5 246.5,349.5C 252.988,349.419 259.321,348.419 265.5,346.5 Z"/></g>
<g><path style="opacity:0.459" fill="#6db782" d="M 289.5,347.5 C 293.635,347.679 297.635,348.345 301.5,349.5C 304.841,349.164 308.175,348.831 311.5,348.5C 311.082,349.222 310.416,349.722 309.5,350C 304.167,350.667 298.833,350.667 293.5,350C 292.142,349.066 290.808,348.232 289.5,347.5 Z"/></g>
<g><path style="opacity:0.953" fill="#da58a0" d="M 432.5,375.5 C 431.833,376.5 431.167,377.5 430.5,378.5C 431.11,370.451 432.11,362.451 433.5,354.5C 430.881,354.232 428.381,354.565 426,355.5C 424.389,363.685 422.556,371.685 420.5,379.5C 419.833,379.5 419.5,379.167 419.5,378.5C 421.376,369.73 423.376,360.896 425.5,352C 428.5,351.333 431.5,351.333 434.5,352C 435.428,352.388 436.095,353.055 436.5,354C 435.027,361.15 433.693,368.317 432.5,375.5 Z"/></g>
<g><path style="opacity:1" fill="#1ca1f0" d="M 123.5,324.5 C 125.144,324.286 126.644,324.62 128,325.5C 135.093,338.207 143.259,350.041 152.5,361C 153.094,361.464 153.761,361.631 154.5,361.5C 156.017,361.511 157.184,362.177 158,363.5C 159.75,365.734 161.25,368.068 162.5,370.5C 162.502,374.349 164.335,377.015 168,378.5C 168.483,379.448 168.649,380.448 168.5,381.5C 167.5,381.5 166.5,381.5 165.5,381.5C 163.77,380.974 162.436,379.974 161.5,378.5C 161.649,377.448 161.483,376.448 161,375.5C 152.656,368.656 145.156,360.989 138.5,352.5C 134.153,349.15 129.82,345.816 125.5,342.5C 123.738,341.738 122.738,340.404 122.5,338.5C 120.656,334.808 118.323,331.475 115.5,328.5C 117.262,328.643 118.929,328.309 120.5,327.5C 122.179,329.104 124.179,329.771 126.5,329.5C 126.5,328.167 126.5,326.833 126.5,325.5C 125.209,325.737 124.209,325.404 123.5,324.5 Z"/></g>
<g><path style="opacity:0.965" fill="#dd6868" d="M 230.5,370.5 C 231.402,366.459 231.402,362.459 230.5,358.5C 224.365,355.074 219.198,356.074 215,361.5C 214.501,365.821 214.334,370.154 214.5,374.5C 213.5,374.5 212.5,374.5 211.5,374.5C 211.721,373.265 212.388,372.265 213.5,371.5C 210.132,359.72 214.465,353.887 226.5,354C 232.257,356.682 234.424,361.182 233,367.5C 232.623,368.942 231.79,369.942 230.5,370.5 Z M 224.5,362.5 C 224.315,364.196 223.481,365.529 222,366.5C 221.09,364.055 221.924,362.722 224.5,362.5 Z"/></g>
<g><path style="opacity:0.604" fill="#58acda" d="M 125.5,342.5 C 129.82,345.816 134.153,349.15 138.5,352.5C 145.156,360.989 152.656,368.656 161,375.5C 161.483,376.448 161.649,377.448 161.5,378.5C 148.494,367.494 136.494,355.494 125.5,342.5 Z"/></g>
<g><path style="opacity:0.945" fill="#d45099" d="M 312.5,377.5 C 312.167,378.167 311.833,378.833 311.5,379.5C 311.611,384.611 309.611,388.611 305.5,391.5C 305.629,389.784 305.962,388.117 306.5,386.5C 311.825,379.533 311.825,372.533 306.5,365.5C 304.253,364.626 301.92,364.292 299.5,364.5C 298.833,364.5 298.5,364.167 298.5,363.5C 304.518,361.256 308.685,363.256 311,369.5C 311.822,372.117 312.322,374.784 312.5,377.5 Z"/></g>
<g><path style="opacity:0.792" fill="#6bb683" d="M 339.5,368.5 C 337.645,366.307 335.311,364.974 332.5,364.5C 327.298,364.699 322.131,365.032 317,365.5C 315.386,376.519 313.552,387.519 311.5,398.5C 311.551,400.1 311.884,401.6 312.5,403C 315.146,403.497 317.813,403.664 320.5,403.5C 317.038,404.482 313.371,404.815 309.5,404.5C 310.14,397.129 311.14,389.796 312.5,382.5C 312.48,381.274 312.147,380.274 311.5,379.5C 311.833,378.833 312.167,378.167 312.5,377.5C 313.969,372.804 315.302,367.97 316.5,363C 323.241,363.074 329.907,363.074 336.5,363C 338.16,364.488 339.16,366.321 339.5,368.5 Z"/></g>
<g><path style="opacity:0.859" fill="#d4716f" d="M 376.5,363.5 C 382.412,362.905 388.412,362.572 394.5,362.5C 394.5,364.5 394.5,366.5 394.5,368.5C 393.596,369.209 393.263,370.209 393.5,371.5C 393.443,372.609 393.11,373.609 392.5,374.5C 390.278,374.178 388.444,374.845 387,376.5C 384.755,382.292 383.255,388.292 382.5,394.5C 378.833,394.5 375.167,394.5 371.5,394.5C 371.69,389.63 372.356,384.964 373.5,380.5C 373.533,384.869 373.2,389.202 372.5,393.5C 375.5,393.5 378.5,393.5 381.5,393.5C 381.406,386.989 382.74,380.989 385.5,375.5C 385.5,374.833 385.833,374.5 386.5,374.5C 391.672,373.333 393.672,369.999 392.5,364.5C 387.187,363.902 381.854,363.569 376.5,363.5 Z"/></g>
<g><path style="opacity:1" fill="#f10994" d="M 430.5,378.5 C 430.216,380.415 430.549,382.081 431.5,383.5C 434.134,386.868 433.801,390.035 430.5,393C 428.821,393.395 427.155,393.228 425.5,392.5C 423.822,391.094 422.156,389.761 420.5,388.5C 420.5,385.5 420.5,382.5 420.5,379.5C 422.556,371.685 424.389,363.685 426,355.5C 428.381,354.565 430.881,354.232 433.5,354.5C 432.11,362.451 431.11,370.451 430.5,378.5 Z"/></g>
<g><path style="opacity:0.933" fill="#e4a959" d="M 361.5,364.5 C 358.358,364.849 355.025,365.016 351.5,365C 349.113,365.564 347.113,366.73 345.5,368.5C 348.064,362.936 352.397,361.102 358.5,363C 359.244,364.039 360.244,364.539 361.5,364.5 Z"/></g>
<g><path style="opacity:1" fill="#767394" d="M 418.5,371.5 C 418.5,374.833 418.5,378.167 418.5,381.5C 413.5,381.5 408.5,381.5 403.5,381.5C 403.263,382.791 403.596,383.791 404.5,384.5C 406.216,384.371 407.883,384.038 409.5,383.5C 410.5,383.5 411.5,383.5 412.5,383.5C 413.81,385.148 415.143,386.814 416.5,388.5C 414.075,393.083 410.241,395.416 405,395.5C 401.729,394.813 398.895,393.48 396.5,391.5C 395.115,390.426 393.949,389.093 393,387.5C 392.501,383.179 392.334,378.846 392.5,374.5C 393.11,373.609 393.443,372.609 393.5,371.5C 394.404,370.791 394.737,369.791 394.5,368.5C 401.177,361.479 408.344,360.812 416,366.5C 417.094,368.078 417.928,369.745 418.5,371.5 Z M 405.5,372.5 C 406.995,372.415 407.995,373.081 408.5,374.5C 407.167,375.833 405.833,375.833 404.5,374.5C 404.863,373.817 405.196,373.15 405.5,372.5 Z"/></g>
<g><path style="opacity:0.999" fill="#747199" d="M 276.5,374.5 C 272.405,369.667 270.738,364.001 271.5,357.5C 266.913,356.622 263.58,358.122 261.5,362C 261.833,362.333 262.167,362.667 262.5,363C 259.467,364.737 258.967,366.903 261,369.5C 262.705,368.237 264.372,367.903 266,368.5C 266.333,367.833 266.667,367.167 267,366.5C 267.5,368.333 268.667,369.5 270.5,370C 269.584,370.374 268.75,370.874 268,371.5C 267.503,373.81 267.337,376.143 267.5,378.5C 265.833,378.5 264.167,378.5 262.5,378.5C 262.5,378.167 262.5,377.833 262.5,377.5C 261.833,377.5 261.5,377.833 261.5,378.5C 260.694,377.003 260.028,375.336 259.5,373.5C 254.555,371.439 252.555,373.105 253.5,378.5C 252.5,378.5 251.5,378.5 250.5,378.5C 252.937,370.36 256.437,362.693 261,355.5C 264.73,354.54 268.563,354.207 272.5,354.5C 273.962,361.141 275.295,367.808 276.5,374.5 Z M 262.5,377.5 C 263.5,369.5 264.5,369.5 265.5,377.5C 264.5,377.5 263.5,377.5 262.5,377.5 Z"/></g>
<g><path style="opacity:1" fill="#f70594" d="M 299.5,364.5 C 301.92,364.292 304.253,364.626 306.5,365.5C 311.825,372.533 311.825,379.533 306.5,386.5C 304.06,386.766 302.06,385.599 300.5,383C 304.141,377.235 302.807,373.402 296.5,371.5C 293.527,373.806 290.86,376.473 288.5,379.5C 287.914,379.291 287.414,378.957 287,378.5C 285.541,373.248 287.041,369.248 291.5,366.5C 293.484,365.294 295.484,365.294 297.5,366.5C 298.522,366.145 299.189,365.478 299.5,364.5 Z"/></g>
<g><path style="opacity:1" fill="#f89a0c" d="M 361.5,364.5 C 364.167,364.5 366.833,364.5 369.5,364.5C 369.099,373.908 368.099,383.242 366.5,392.5C 363.5,392.5 360.5,392.5 357.5,392.5C 356.167,392.5 354.833,392.5 353.5,392.5C 350.956,392.896 348.789,392.229 347,390.5C 346.691,385.818 345.857,381.318 344.5,377C 344.798,374.152 345.131,371.319 345.5,368.5C 347.113,366.73 349.113,365.564 351.5,365C 355.025,365.016 358.358,364.849 361.5,364.5 Z M 354.5,374.5 C 355.5,374.5 356.5,374.5 357.5,374.5C 358.588,377.444 358.588,380.444 357.5,383.5C 356.167,383.5 354.833,383.5 353.5,383.5C 353.508,380.455 353.841,377.455 354.5,374.5 Z"/></g>
<g><path style="opacity:0.302" fill="#e9b977" d="M 361.5,363.5 C 364.899,362.18 368.399,362.18 372,363.5C 372.016,369.702 371.183,375.702 369.5,381.5C 369.966,375.509 370.299,369.509 370.5,363.5C 367.5,363.5 364.5,363.5 361.5,363.5 Z"/></g>
<g><path style="opacity:0.627" fill="#da7065" d="M 376.5,363.5 C 376.771,368.434 376.104,373.1 374.5,377.5C 374.362,372.586 375.028,367.919 376.5,363.5 Z"/></g>
<g><path style="opacity:1" fill="#39c867" d="M 339.5,368.5 C 341.28,369.99 341.946,371.99 341.5,374.5C 341.552,376.903 341.219,379.236 340.5,381.5C 338.558,385.205 336.224,388.705 333.5,392C 329.738,392.927 326.238,392.427 323,390.5C 322.5,390.833 322,391.167 321.5,391.5C 320.583,394.758 320.249,398.091 320.5,401.5C 320.5,402.167 320.5,402.833 320.5,403.5C 317.813,403.664 315.146,403.497 312.5,403C 311.884,401.6 311.551,400.1 311.5,398.5C 313.552,387.519 315.386,376.519 317,365.5C 322.131,365.032 327.298,364.699 332.5,364.5C 335.311,364.974 337.645,366.307 339.5,368.5 Z M 326.5,373.5 C 328.849,373.458 330.182,374.625 330.5,377C 330.082,379.6 328.916,381.767 327,383.5C 323.854,380.273 323.687,376.94 326.5,373.5 Z"/></g>
<g><path style="opacity:1" fill="#686697" d="M 396.5,391.5 C 396.628,389.345 396.128,387.345 395,385.5C 394.667,385.833 394.333,386.167 394,386.5C 393.333,383.5 393.333,380.5 394,377.5C 396.412,373.966 398.579,370.299 400.5,366.5C 403.833,365.167 407.167,365.167 410.5,366.5C 411.472,368.636 413.139,369.803 415.5,370C 417.076,372.951 417.743,376.117 417.5,379.5C 411.948,380.041 406.448,380.708 401,381.5C 401.778,383.682 403.112,385.682 405,387.5C 407.384,386.281 409.717,386.281 412,387.5C 412.711,389.367 412.211,390.867 410.5,392C 405.827,393.513 401.16,393.346 396.5,391.5 Z M 405.5,372.5 C 405.196,373.15 404.863,373.817 404.5,374.5C 405.833,375.833 407.167,375.833 408.5,374.5C 407.995,373.081 406.995,372.415 405.5,372.5 Z"/></g>
<g><path style="opacity:1" fill="#666598" d="M 276.5,374.5 C 276.5,375.167 276.5,375.833 276.5,376.5C 276.5,378.833 276.5,381.167 276.5,383.5C 276.714,387.257 275.714,387.924 273.5,385.5C 272.123,388.695 270.123,389.195 267.5,387C 263.167,386.333 258.833,386.333 254.5,387C 253.62,388.356 253.286,389.856 253.5,391.5C 251.194,391.993 248.861,392.326 246.5,392.5C 248.038,387.886 249.372,383.219 250.5,378.5C 251.5,378.5 252.5,378.5 253.5,378.5C 252.555,373.105 254.555,371.439 259.5,373.5C 260.028,375.336 260.694,377.003 261.5,378.5C 261.833,378.5 262.167,378.5 262.5,378.5C 264.167,378.5 265.833,378.5 267.5,378.5C 267.337,376.143 267.503,373.81 268,371.5C 268.75,370.874 269.584,370.374 270.5,370C 268.667,369.5 267.5,368.333 267,366.5C 266.667,367.167 266.333,367.833 266,368.5C 264.372,367.903 262.705,368.237 261,369.5C 258.967,366.903 259.467,364.737 262.5,363C 262.167,362.667 261.833,362.333 261.5,362C 263.58,358.122 266.913,356.622 271.5,357.5C 270.738,364.001 272.405,369.667 276.5,374.5 Z"/></g>
<g><path style="opacity:0.482" fill="#68c284" d="M 325.5,371.5 C 329.513,370.832 331.513,372.499 331.5,376.5C 331.816,382.364 329.316,384.697 324,383.5C 323.083,379.238 323.583,375.238 325.5,371.5 Z M 326.5,373.5 C 323.687,376.94 323.854,380.273 327,383.5C 328.916,381.767 330.082,379.6 330.5,377C 330.182,374.625 328.849,373.458 326.5,373.5 Z"/></g>
<g><path style="opacity:1" fill="#fa3433" d="M 386.5,374.5 C 385.833,374.5 385.5,374.833 385.5,375.5C 384.167,375.5 382.833,375.5 381.5,375.5C 380.355,380.704 379.689,386.037 379.5,391.5C 376.512,391.845 375.179,390.512 375.5,387.5C 375.761,380.257 377.094,373.257 379.5,366.5C 383.294,364.685 387.294,364.352 391.5,365.5C 391.799,367.604 391.466,369.604 390.5,371.5C 388.517,371.815 387.184,372.815 386.5,374.5 Z"/></g>
<g><path style="opacity:1" fill="#e62f96" d="M 298.5,363.5 C 298.5,364.167 298.833,364.5 299.5,364.5C 299.189,365.478 298.522,366.145 297.5,366.5C 295.484,365.294 293.484,365.294 291.5,366.5C 287.041,369.248 285.541,373.248 287,378.5C 287.414,378.957 287.914,379.291 288.5,379.5C 290.86,376.473 293.527,373.806 296.5,371.5C 302.807,373.402 304.141,377.235 300.5,383C 302.06,385.599 304.06,386.766 306.5,386.5C 305.962,388.117 305.629,389.784 305.5,391.5C 301.7,396.156 297.533,396.489 293,392.5C 292.34,395.678 291.507,398.678 290.5,401.5C 289.833,401.833 289.167,402.167 288.5,402.5C 286.052,403.473 283.385,403.806 280.5,403.5C 281.2,399.202 281.533,394.869 281.5,390.5C 282.678,381.443 284.178,372.443 286,363.5C 290.134,362.26 294.301,362.26 298.5,363.5 Z M 296.5,373.5 C 298.849,373.458 300.182,374.625 300.5,377C 300.082,379.6 298.916,381.767 297,383.5C 293.98,380.355 293.813,377.022 296.5,373.5 Z"/></g>
<g><path style="opacity:1" fill="#e63c3c" d="M 376.5,363.5 C 381.854,363.569 387.187,363.902 392.5,364.5C 393.672,369.999 391.672,373.333 386.5,374.5C 387.184,372.815 388.517,371.815 390.5,371.5C 391.466,369.604 391.799,367.604 391.5,365.5C 387.294,364.352 383.294,364.685 379.5,366.5C 377.094,373.257 375.761,380.257 375.5,387.5C 375.179,390.512 376.512,391.845 379.5,391.5C 379.689,386.037 380.355,380.704 381.5,375.5C 382.833,375.5 384.167,375.5 385.5,375.5C 382.74,380.989 381.406,386.989 381.5,393.5C 378.5,393.5 375.5,393.5 372.5,393.5C 373.2,389.202 373.533,384.869 373.5,380.5C 373.263,379.209 373.596,378.209 374.5,377.5C 376.104,373.1 376.771,368.434 376.5,363.5 Z"/></g>
<g><path style="opacity:0.02" fill="#cace7f" d="M 343.5,372.5 C 342.756,376.119 342.423,379.785 342.5,383.5C 341.833,383.5 341.167,383.5 340.5,383.5C 340.5,382.833 340.5,382.167 340.5,381.5C 341.219,379.236 341.552,376.903 341.5,374.5C 342.167,373.833 342.833,373.167 343.5,372.5 Z"/></g>
<g><path style="opacity:0.851" fill="#63a9d2" d="M 162.5,370.5 C 166.436,374.938 170.602,379.271 175,383.5C 176.559,385.217 177.392,387.217 177.5,389.5C 172.163,388.828 168.163,386.161 165.5,381.5C 166.5,381.5 167.5,381.5 168.5,381.5C 168.649,380.448 168.483,379.448 168,378.5C 164.335,377.015 162.502,374.349 162.5,370.5 Z"/></g>
<g><path style="opacity:0.035" fill="#ddddec" d="M 418.5,381.5 C 416.5,382.167 414.5,382.833 412.5,383.5C 411.5,383.5 410.5,383.5 409.5,383.5C 408.903,382.861 408.07,382.528 407,382.5C 405.624,382.684 404.791,383.351 404.5,384.5C 403.596,383.791 403.263,382.791 403.5,381.5C 408.5,381.5 413.5,381.5 418.5,381.5 Z"/></g>
<g><path style="opacity:0.075" fill="#f4b0dd" d="M 418.5,371.5 C 419.468,373.607 419.802,375.941 419.5,378.5C 419.5,379.167 419.833,379.5 420.5,379.5C 420.5,382.5 420.5,385.5 420.5,388.5C 419.833,386.167 419.167,383.833 418.5,381.5C 418.5,378.167 418.5,374.833 418.5,371.5 Z"/></g>
<g><path style="opacity:1" fill="#e9a02e" d="M 345.5,368.5 C 345.131,371.319 344.798,374.152 344.5,377C 345.857,381.318 346.691,385.818 347,390.5C 348.789,392.229 350.956,392.896 353.5,392.5C 351.393,393.468 349.059,393.802 346.5,393.5C 343.821,390.784 342.488,387.45 342.5,383.5C 342.423,379.785 342.756,376.119 343.5,372.5C 343.66,370.847 344.326,369.514 345.5,368.5 Z"/></g>
<g><path style="opacity:0.918" fill="#db6464" d="M 211.5,374.5 C 210.846,377.494 210.179,380.494 209.5,383.5C 209.927,387.016 210.927,390.349 212.5,393.5C 207.951,389.994 206.451,385.328 208,379.5C 208.697,377.416 209.864,375.749 211.5,374.5 Z"/></g>
<g><path style="opacity:1" fill="#f23838" d="M 230.5,370.5 C 230.5,371.167 230.167,371.5 229.5,371.5C 228.5,371.833 227.833,372.5 227.5,373.5C 227.5,373.833 227.5,374.167 227.5,374.5C 226.508,374.328 225.842,374.662 225.5,375.5C 225.281,376.675 225.614,377.675 226.5,378.5C 228.323,377.253 230.323,376.586 232.5,376.5C 231.488,381.858 231.488,387.191 232.5,392.5C 230.64,393.071 228.973,393.071 227.5,392.5C 226.167,392.833 224.833,393.167 223.5,393.5C 219.833,393.5 216.167,393.5 212.5,393.5C 210.927,390.349 209.927,387.016 209.5,383.5C 210.179,380.494 210.846,377.494 211.5,374.5C 212.5,374.5 213.5,374.5 214.5,374.5C 214.334,370.154 214.501,365.821 215,361.5C 219.198,356.074 224.365,355.074 230.5,358.5C 231.402,362.459 231.402,366.459 230.5,370.5 Z M 217.5,380.5 C 219.026,381.105 220.026,382.271 220.5,384C 217.064,384.737 216.064,383.57 217.5,380.5 Z M 224.5,362.5 C 221.924,362.722 221.09,364.055 222,366.5C 223.481,365.529 224.315,364.196 224.5,362.5 Z"/></g>
<g><path style="opacity:0.49" fill="#de5b62" d="M 224.5,362.5 C 225.663,365.706 224.33,367.373 220.5,367.5C 220.5,365.5 220.5,363.5 220.5,361.5C 222.099,361.232 223.432,361.566 224.5,362.5 Z M 224.5,362.5 C 221.924,362.722 221.09,364.055 222,366.5C 223.481,365.529 224.315,364.196 224.5,362.5 Z"/></g>
<g><path style="opacity:1" fill="#726f97" d="M 250.5,378.5 C 249.372,383.219 248.038,387.886 246.5,392.5C 248.861,392.326 251.194,391.993 253.5,391.5C 253.286,389.856 253.62,388.356 254.5,387C 258.833,386.333 263.167,386.333 267.5,387C 270.123,389.195 272.123,388.695 273.5,385.5C 275.714,387.924 276.714,387.257 276.5,383.5C 277.479,386.625 277.813,389.958 277.5,393.5C 274.5,393.5 271.5,393.5 268.5,393.5C 267.549,392.081 267.216,390.415 267.5,388.5C 263.774,388.177 260.107,388.511 256.5,389.5C 255.926,391.059 255.26,392.559 254.5,394C 250.848,394.499 247.182,394.665 243.5,394.5C 244.766,388.64 247.1,383.307 250.5,378.5 Z"/></g>
<g><path style="opacity:1" fill="#e9a94f" d="M 354.5,374.5 C 353.841,377.455 353.508,380.455 353.5,383.5C 354.833,383.5 356.167,383.5 357.5,383.5C 358.588,380.444 358.588,377.444 357.5,374.5C 358.765,375.514 359.431,377.014 359.5,379C 359.849,383.653 357.682,386.153 353,386.5C 352.833,384.5 352.667,382.5 352.5,380.5C 352.539,378.048 353.206,376.048 354.5,374.5 Z M 354.5,374.5 C 355.5,374.5 356.5,374.5 357.5,374.5C 358.588,377.444 358.588,380.444 357.5,383.5C 356.167,383.5 354.833,383.5 353.5,383.5C 353.508,380.455 353.841,377.455 354.5,374.5 Z"/></g>
<g><path style="opacity:0.027" fill="#ed8ebb" d="M 432.5,375.5 C 432.567,377.401 432.233,379.234 431.5,381C 432.482,382.054 433.649,382.554 435,382.5C 435.495,384.473 435.662,386.473 435.5,388.5C 434.549,387.081 434.216,385.415 434.5,383.5C 433.5,383.5 432.5,383.5 431.5,383.5C 430.549,382.081 430.216,380.415 430.5,378.5C 431.167,377.5 431.833,376.5 432.5,375.5 Z"/></g>
<g><path style="opacity:1" fill="#de6866" d="M 229.5,371.5 C 231.127,373.63 232.96,375.63 235,377.5C 235.543,380.17 235.043,382.67 233.5,385C 237.333,389.477 236.333,392.977 230.5,395.5C 228.484,395.484 227.484,394.484 227.5,392.5C 228.973,393.071 230.64,393.071 232.5,392.5C 231.488,387.191 231.488,381.858 232.5,376.5C 230.323,376.586 228.323,377.253 226.5,378.5C 225.614,377.675 225.281,376.675 225.5,375.5C 226.925,377.031 227.591,376.698 227.5,374.5C 228.833,374.167 228.833,373.833 227.5,373.5C 227.833,372.5 228.5,371.833 229.5,371.5 Z"/></g>
<g><path style="opacity:0.808" fill="#908ca4" d="M 276.5,376.5 C 278.421,382.223 279.421,388.223 279.5,394.5C 275.629,394.815 271.962,394.482 268.5,393.5C 271.5,393.5 274.5,393.5 277.5,393.5C 277.813,389.958 277.479,386.625 276.5,383.5C 276.5,381.167 276.5,378.833 276.5,376.5 Z"/></g>
<g><path style="opacity:0.916" fill="#e19e3d" d="M 361.5,364.5 C 361.5,364.167 361.5,363.833 361.5,363.5C 364.5,363.5 367.5,363.5 370.5,363.5C 370.299,369.509 369.966,375.509 369.5,381.5C 369.666,385.674 369,389.674 367.5,393.5C 363.958,393.813 360.625,393.479 357.5,392.5C 360.5,392.5 363.5,392.5 366.5,392.5C 368.099,383.242 369.099,373.908 369.5,364.5C 366.833,364.5 364.167,364.5 361.5,364.5 Z"/></g>
<g><path style="opacity:0.388" fill="#df928e" d="M 212.5,393.5 C 216.167,393.5 219.833,393.5 223.5,393.5C 219.833,396.167 216.167,396.167 212.5,393.5 Z"/></g>
<g><path style="opacity:0.494" fill="#e5c076" d="M 353.5,392.5 C 354.833,392.5 356.167,392.5 357.5,392.5C 360.625,393.479 363.958,393.813 367.5,393.5C 363.676,396.021 359.843,396.021 356,393.5C 352.72,396.14 349.553,396.14 346.5,393.5C 349.059,393.802 351.393,393.468 353.5,392.5 Z"/></g>
<g><path style="opacity:0.62" fill="#ce569b" d="M 431.5,383.5 C 432.5,383.5 433.5,383.5 434.5,383.5C 434.216,385.415 434.549,387.081 435.5,388.5C 434.815,390.414 434.315,392.414 434,394.5C 427.276,397.204 422.776,395.204 420.5,388.5C 422.156,389.761 423.822,391.094 425.5,392.5C 427.155,393.228 428.821,393.395 430.5,393C 433.801,390.035 434.134,386.868 431.5,383.5 Z"/></g>
<g><path style="opacity:0.208" fill="#7fc68b" d="M 340.5,381.5 C 340.5,382.167 340.5,382.833 340.5,383.5C 339.372,387.09 337.705,390.423 335.5,393.5C 335.931,394.293 336.265,395.127 336.5,396C 335.95,399.324 335.283,402.491 334.5,405.5C 334.663,403.143 334.497,400.81 334,398.5C 333.329,399.252 332.496,399.586 331.5,399.5C 332.867,397.858 333.201,396.192 332.5,394.5C 328.873,396.075 325.707,395.408 323,392.5C 322.159,395.628 321.325,398.628 320.5,401.5C 320.249,398.091 320.583,394.758 321.5,391.5C 322,391.167 322.5,390.833 323,390.5C 326.238,392.427 329.738,392.927 333.5,392C 336.224,388.705 338.558,385.205 340.5,381.5 Z"/></g>
<g><path style="opacity:1" fill="#f80496" d="M 288.5,402.5 C 286.801,402.66 285.134,402.494 283.5,402C 282.849,395.846 283.349,389.679 285,383.5C 291.448,378.437 294.781,380.104 295,388.5C 296.117,388.665 297.284,388.998 298.5,389.5C 299.386,390.325 299.719,391.325 299.5,392.5C 296.413,390.983 293.079,390.316 289.5,390.5C 289.534,393.199 288.867,395.699 287.5,398C 288.38,399.356 288.714,400.856 288.5,402.5 Z"/></g>
<g><path style="opacity:0.659" fill="#cb5d9d" d="M 281.5,390.5 C 281.533,394.869 281.2,399.202 280.5,403.5C 283.385,403.806 286.052,403.473 288.5,402.5C 289.167,402.167 289.833,401.833 290.5,401.5C 290.5,402.5 290.5,403.5 290.5,404.5C 286.445,404.824 282.445,404.491 278.5,403.5C 279.405,399.023 280.405,394.689 281.5,390.5 Z"/></g>
<g><path style="opacity:0.965" fill="#5cb94e" d="M 334.5,405.5 C 334.57,409.425 333.903,413.091 332.5,416.5C 332.665,413.15 332.498,409.817 332,406.5C 330.264,408.063 328.764,409.73 327.5,411.5C 328.35,407.325 329.683,403.325 331.5,399.5C 332.496,399.586 333.329,399.252 334,398.5C 334.497,400.81 334.663,403.143 334.5,405.5 Z"/></g>
<g><path style="opacity:0.839" fill="#94be91" d="M 214.5,412.5 C 214.082,413.222 213.416,413.722 212.5,414C 213.056,414.383 213.389,414.883 213.5,415.5C 210.703,415.033 209.369,413.367 209.5,410.5C 211.553,410.402 213.22,411.069 214.5,412.5 Z"/></g>
<g><path style="opacity:0.953" fill="#76c06b" d="M 214.5,412.5 C 219.301,415.997 224.301,418.997 229.5,421.5C 228.127,421.657 226.793,421.49 225.5,421C 223.374,420.102 221.374,418.935 219.5,417.5C 218.438,418.425 218.438,419.425 219.5,420.5C 216.911,419.581 214.911,417.914 213.5,415.5C 213.389,414.883 213.056,414.383 212.5,414C 213.416,413.722 214.082,413.222 214.5,412.5 Z"/></g>
<g><path style="opacity:0.404" fill="#89ce80" d="M 327.5,411.5 C 327.5,415.175 325.833,417.841 322.5,419.5C 324.17,416.825 325.836,414.159 327.5,411.5 Z"/></g>
<g><path style="opacity:0.984" fill="#67bc54" d="M 322.5,419.5 C 319.565,426.767 314.232,431.1 306.5,432.5C 311.786,428.224 317.12,423.891 322.5,419.5 Z"/></g>
<g><path style="opacity:0.965" fill="#6ec15c" d="M 332.5,416.5 C 331.399,421.167 330.232,425.834 329,430.5C 327.961,431.71 326.794,432.71 325.5,433.5C 327.718,429.588 328.884,425.255 329,420.5C 329.949,418.907 331.115,417.574 332.5,416.5 Z"/></g>
<g><path style="opacity:0.969" fill="#64c155" d="M 229.5,421.5 C 238.42,425.796 247.42,429.796 256.5,433.5C 251.671,431.761 246.671,430.595 241.5,430C 238.328,428.248 235.328,426.248 232.5,424C 230.553,423.009 228.553,422.675 226.5,423C 229.996,427.245 234.33,430.245 239.5,432C 242.501,436.24 246.501,439.24 251.5,441C 252.252,441.671 252.586,442.504 252.5,443.5C 247.728,441.28 243.062,438.78 238.5,436C 231.397,431.726 225.064,426.559 219.5,420.5C 218.438,419.425 218.438,418.425 219.5,417.5C 221.374,418.935 223.374,420.102 225.5,421C 226.793,421.49 228.127,421.657 229.5,421.5 Z"/></g>
<g><path style="opacity:1" fill="#29c716" d="M 332.5,416.5 C 331.115,417.574 329.949,418.907 329,420.5C 328.884,425.255 327.718,429.588 325.5,433.5C 320.634,441.771 313.634,447.438 304.5,450.5C 303.614,451.325 303.281,452.325 303.5,453.5C 295.493,453.666 287.493,453.5 279.5,453C 272.682,451.08 266.349,448.413 260.5,445C 257.793,444.605 255.127,444.105 252.5,443.5C 252.586,442.504 252.252,441.671 251.5,441C 246.501,439.24 242.501,436.24 239.5,432C 234.33,430.245 229.996,427.245 226.5,423C 228.553,422.675 230.553,423.009 232.5,424C 235.328,426.248 238.328,428.248 241.5,430C 246.671,430.595 251.671,431.761 256.5,433.5C 258.515,434.924 260.848,435.59 263.5,435.5C 263.804,436.15 264.137,436.817 264.5,437.5C 275.485,438.666 286.485,438.832 297.5,438C 301.418,437.566 304.418,435.733 306.5,432.5C 314.232,431.1 319.565,426.767 322.5,419.5C 325.833,417.841 327.5,415.175 327.5,411.5C 328.764,409.73 330.264,408.063 332,406.5C 332.498,409.817 332.665,413.15 332.5,416.5 Z"/></g>
<g><path style="opacity:0.878" fill="#59bc4a" d="M 306.5,432.5 C 304.418,435.733 301.418,437.566 297.5,438C 286.485,438.832 275.485,438.666 264.5,437.5C 264.137,436.817 263.804,436.15 263.5,435.5C 267.234,435.323 270.901,435.656 274.5,436.5C 281.655,437.655 288.988,437.822 296.5,437C 297.416,436.722 298.082,436.222 298.5,435.5C 301.007,434.108 303.673,433.108 306.5,432.5 Z"/></g>
<g><path style="opacity:0.128" fill="#97d48c" d="M 298.5,435.5 C 298.082,436.222 297.416,436.722 296.5,437C 288.988,437.822 281.655,437.655 274.5,436.5C 282.521,436.558 290.521,436.224 298.5,435.5 Z"/></g>
<g><path style="opacity:0.682" fill="#78c16b" d="M 256.5,433.5 C 258.527,433.338 260.527,433.505 262.5,434C 263.056,434.383 263.389,434.883 263.5,435.5C 260.848,435.59 258.515,434.924 256.5,433.5 Z"/></g>
<g><path style="opacity:0.686" fill="#72c762" d="M 325.5,433.5 C 324.337,437.982 322.004,441.816 318.5,445C 314.08,448.934 309.08,451.767 303.5,453.5C 303.281,452.325 303.614,451.325 304.5,450.5C 313.634,447.438 320.634,441.771 325.5,433.5 Z"/></g>
<g><path style="opacity:0.922" fill="#87d17c" d="M 252.5,443.5 C 255.127,444.105 257.793,444.605 260.5,445C 266.349,448.413 272.682,451.08 279.5,453C 287.493,453.5 295.493,453.666 303.5,453.5C 289.513,455.887 275.847,454.387 262.5,449C 259.327,446.634 255.994,444.801 252.5,443.5 Z"/></g>
</svg>
